<?xml version="1.0" encoding="utf-8"?>
<!-- Generator: Adobe Illustrator 22.1.0, SVG Export Plug-In . SVG Version: 6.00 Build 0)  -->
<svg version="1.1" id="Camada_1" xmlns="http://www.w3.org/2000/svg" xmlns:xlink="http://www.w3.org/1999/xlink" x="0px" y="0px"
	 viewBox="0 0 514.6 50" style="enable-background:new 0 0 514.6 50;" xml:space="preserve">
<style type="text/css">
	.st0{fill:#F4A9C7;}
	.st1{fill:#F8A5C7;}
	.st2{fill:#452E94;}
	.st3{fill:#FFE370;}
	.st4{fill:url(#XMLID_5_);}
	.st5{fill:#61CECE;}
	.st6{fill:#007575;}
	.st7{fill:#00B0B0;}
	.st8{fill:#E5F5FF;}
	.st9{fill:#FCD117;}
	.st10{fill:#FFFFFF;}
	.st11{fill:#EB0A66;}
	.st12{fill:#FFF1B9;}
</style>
<g id="XMLID_69_">
	<g id="XMLID_156_">
		<g id="XMLID_159_">
			<path id="XMLID_2_" class="st0" d="M502.8,50c-4.8,0-8.5-3.7-8.5-8.4c0-3.3,2.7-6,6.1-6c2.6,0,4.7,2.1,4.7,4.8c0,1-0.3,1.8-1,2.3
				c-0.7,0.6-1.7,0.9-3,0.7c-0.5-0.1-0.9-0.6-0.8-1.1c0.1-0.5,0.6-0.9,1.1-0.8c0.7,0.1,1.2,0,1.4-0.2c0.3-0.2,0.3-0.6,0.3-0.9
				c0-1.5-1.3-2.8-2.8-2.8c-2.3,0-4.2,1.8-4.2,4.1c0,3.6,2.9,6.4,6.6,6.4c3,0,5.7-1.2,7.6-3.3c1.7-2,2.5-4.4,2.2-7.1
				c-1.1-9.8-7.4-9.7-17.7-9.7H351.2c-0.5,0-1-0.5-1-1s0.4-1,1-1h143.7c0,0,0.1,0,0.1,0c10.2,0,18.3,0,19.6,11.5
				c0.4,3.2-0.6,6.3-2.7,8.7C509.6,48.6,506.3,50,502.8,50z"/>
		</g>
		<g id="XMLID_157_">
			<path id="XMLID_1_" class="st0" d="M11.8,50c-3.5,0-6.8-1.4-9-3.9c-2.1-2.4-3.1-5.4-2.7-8.6C1.4,26,9.4,26,19.6,26
				c0,0,0.1,0,0.1,0h142.7c0.5,0,1,0.5,1,1s-0.4,1-1,1H19.8C9.3,28,3.1,27.9,2,37.7c-0.3,2.7,0.5,5.2,2.2,7.1
				c1.9,2.1,4.6,3.2,7.6,3.2c3.7,0,6.6-2.8,6.6-6.4c0-2.3-1.8-4.1-4.2-4.1c-1.5,0-2.8,1.3-2.8,2.8c0,0.3,0,0.8,0.2,1
				c0.1,0.1,0.5,0.2,1.1,0.1c0.5-0.1,1,0.3,1.1,0.8c0.1,0.5-0.3,1-0.8,1.1c-1.2,0.2-2,0-2.6-0.6c-0.8-0.7-0.8-1.8-0.8-2.5
				c0-2.6,2.1-4.8,4.7-4.8c3.4,0,6.1,2.7,6.1,6C20.4,46.3,16.6,50,11.8,50z"/>
		</g>
	</g>
	<g id="XMLID_70_">
		<g id="XMLID_122_">
			<g id="XMLID_133_">
				<g id="XMLID_144_">
					<path id="XMLID_152_" class="st0" d="M213.4,25.1l-7.7-16.3c0-0.1-0.1-0.2-0.2-0.2c-0.1-0.2-0.4-0.2-0.6-0.2
						c-0.3,0.1-7.7,2.1-10.7,7.1c-0.4-0.1-1.1-0.2-2-0.2c-2.1,0-5.5,0.6-9.8,3.5c-0.2,0.1-0.3,0.4-0.2,0.7l-0.1,0
						c-0.1,0-0.1,0.1-0.1,0.2l1.8,3.9c0.1,0.1,6.1,12.8,6.1,12.8c0,0.1,0.1,0.1,0.1,0.2c0,0.1,0.1,0.2,0.1,0.3
						c0.1,0.1,0.3,0.2,0.4,0.2c0.2,0,0.3-0.1,0.4-0.2c2.2-2.1,4.7-3.1,7.4-3.2c2.1-0.1,3.5,0.5,3.5,0.5c0.2,0.1,0.4,0,0.5-0.1
						c0.1,0,0.2,0,0.3-0.1c0.1,0,0.2-0.1,0.2-0.2c0.2-0.1,0.3-0.2,0.3-0.3c1.9-4.9,9.6-7.4,9.7-7.4c0.2-0.1,0.3-0.2,0.4-0.3
						C213.5,25.4,213.5,25.2,213.4,25.1z M198.5,32.3c-1.9,0.1-4.8,0.6-7.7,3l-7.5-15.8c3.8-2.6,6.9-3.1,8.8-3.1
						c0.9,0,1.5,0.1,1.8,0.2l7.6,16C200.9,32.5,199.8,32.3,198.5,32.3z M202.6,32.1l-7.6-16c0,0,0,0,0,0c2.4-4,8.3-6.1,9.7-6.5
						l7.3,15.4C210.2,25.7,204.8,28,202.6,32.1z"/>
					<path id="XMLID_145_" class="st0" d="M190.6,37.4c-0.3,0-0.6-0.1-0.8-0.3c-0.1-0.1-0.2-0.2-0.2-0.3c0-0.1-0.1-0.1-0.1-0.2
						l-7.9-16.7c-0.1-0.1-0.1-0.3,0-0.5c0,0,0-0.1,0.1-0.1c0-0.3,0.2-0.7,0.5-0.9c5.8-4,10.1-3.7,11.8-3.4c3.2-4.9,10.5-6.9,10.8-7
						c0.4-0.1,0.8,0,1.1,0.3c0.1,0.1,0.3,0.2,0.3,0.4l7.7,16.3c0,0,0,0,0,0c0.1,0.3,0.1,0.6,0,0.9c-0.1,0.3-0.4,0.5-0.7,0.6
						c-0.1,0-7.6,2.5-9.4,7.1c-0.1,0.2-0.3,0.4-0.5,0.6c-0.1,0.1-0.2,0.2-0.4,0.3c-0.1,0.1-0.3,0.1-0.4,0.1c-0.3,0.1-0.6,0.1-0.8,0
						c0,0-1.4-0.5-3.3-0.5c-2.6,0.1-5,1.1-7.1,3.1C191.2,37.3,190.9,37.4,190.6,37.4z M182.6,19.6l7.8,16.5c0.1,0.1,0.1,0.2,0.1,0.2
						l0.1,0.1c2.3-2.2,4.9-3.3,7.8-3.4c2.1-0.1,3.7,0.5,3.7,0.5c0.1-0.1,0.3-0.1,0.4-0.1c0.1-0.1,0.2-0.2,0.3-0.2
						c2-5.2,10-7.8,10-7.8l0.5-0.4l-0.4,0.2L205.2,9c0,0-0.1-0.1-0.1-0.1c0,0-0.1,0-0.1,0c-0.3,0.1-7.5,2.1-10.4,6.9
						c-0.1,0.2-0.3,0.3-0.5,0.2c-1.3-0.3-5.5-0.8-11.4,3.2c0,0,0,0.1,0,0.1C182.6,19.4,182.6,19.5,182.6,19.6z M190.8,35.8
						c0,0-0.1,0-0.1,0c-0.2,0-0.3-0.1-0.3-0.3l-7.5-15.8c-0.1-0.2,0-0.5,0.2-0.6c5.7-3.8,9.8-3.3,11-3c0.1,0,0.3,0.1,0.3,0.3l7.6,16
						c0.1,0.2,0.1,0.4-0.1,0.5c-0.1,0.1-0.3,0.2-0.5,0.2c-0.6-0.2-1.7-0.3-3-0.3c-1.9,0-4.6,0.6-7.3,2.9
						C191.1,35.8,190.9,35.8,190.8,35.8z M183.9,19.7l7.1,14.9c2.8-2.2,5.6-2.7,7.5-2.7l0,0c0.9,0,1.6,0,2.2,0.1L193.6,17
						C192.4,16.8,188.8,16.6,183.9,19.7z M202.6,33C202.6,33,202.6,33,202.6,33c-0.2,0-0.4-0.3-0.4-0.5l-7.6-16.1
						c-0.1-0.1-0.1-0.4,0-0.5c2.4-4.1,8.3-6.2,10-6.8c0.2-0.1,0.5,0,0.6,0.2l7.3,15.4c0.1,0.1,0.1,0.3,0,0.4
						c-0.1,0.1-0.2,0.2-0.3,0.3c-1.6,0.6-7.1,3.1-9.2,7.1C203,32.7,202.8,33,202.6,33z M195.6,16.2l7.1,14.9
						c2.2-3.4,6.5-5.5,8.7-6.3l-6.9-14.5C202.8,10.8,197.8,12.8,195.6,16.2z"/>
				</g>
				<g id="XMLID_139_">
					<path id="XMLID_58_" class="st0" d="M217.4,27.5l-8.9-18.7c-0.1-0.2-0.3-0.3-0.5-0.3c-0.1,0-0.2,0-0.3,0.1
						c-0.3,0.1-0.4,0.5-0.3,0.8l8.5,17.8c-0.8,0-2.5,0.1-4.5,0.7c-3.6,1-6.4,3-8.2,5.8c-0.1,0.1-0.1,0.3-0.1,0.4
						c0,0.2,0.1,0.3,0.3,0.4c0.1,0.1,0.2,0.1,0.3,0.1h0c0.2,0,0.4-0.1,0.5-0.3c3.6-5.7,10.5-5.9,11.8-5.9c0.1,0,0.2,0,0.2,0
						c0.1,0,0.2,0,0.3-0.1c0.2,0.1,0.4,0.1,0.5,0C217.4,28.2,217.5,27.8,217.4,27.5z"/>
					<path id="XMLID_140_" class="st0" d="M203.7,35.1c-0.2,0-0.4-0.1-0.6-0.2c-0.2-0.2-0.4-0.4-0.5-0.7c-0.1-0.3,0-0.6,0.1-0.8
						c1.9-2.9,4.8-5,8.5-6.1c1.5-0.4,2.9-0.6,3.8-0.6L207,9.5c-0.1-0.3-0.1-0.6,0-0.8c0.1-0.3,0.3-0.5,0.6-0.6
						c0.5-0.2,1.2,0,1.5,0.5l8.9,18.7c0.1,0.3,0.1,0.6,0,0.8c-0.1,0.3-0.3,0.5-0.6,0.6c-0.2,0.1-0.5,0.1-0.7,0.1c-0.1,0-0.2,0-0.3,0
						l-0.2,0c-1.3,0-8,0.3-11.4,5.7C204.4,34.9,204.1,35.1,203.7,35.1z M208,9L208,9l8.4,18c0.1,0.2,0.1,0.3,0,0.5
						c-0.1,0.1-0.2,0.2-0.4,0.2c-0.8,0-2.4,0.1-4.3,0.6c-3.5,1-6.2,2.9-7.9,5.6c0,0,0,0.1,0,0.1l0.6,0.2l-0.4-0.3
						c3.7-5.9,10.9-6.2,12.3-6.2l0.2,0c0.1-0.1,0.4-0.1,0.5,0l0.1-0.1c0,0,0-0.1,0-0.1L208,9C208,9,208,9,208,9z"/>
				</g>
				<g id="XMLID_134_">
					<path id="XMLID_55_" class="st0" d="M202.4,34.1c-0.8-0.2-1.6-0.3-2.4-0.3c-2.4,0-4.8,0.9-7.1,2.7c-1.4,1.1-2.4,2.2-3.1,3.1
						l-8.4-17.7c-0.1-0.2-0.3-0.3-0.5-0.3c-0.1,0-0.2,0-0.3,0.1c-0.3,0.1-0.4,0.5-0.3,0.8l8.8,18.5c0,0.2,0.1,0.3,0.2,0.4
						c0.1,0.1,0.2,0.1,0.3,0.1c0.1,0,0.2,0,0.3-0.1c0,0,0,0,0,0c0.1-0.1,0.2-0.2,0.3-0.3c0.5-0.7,4.5-6,9.8-6c0.7,0,1.4,0.1,2.1,0.3
						c0.1,0,0.1,0,0.2,0c0.3,0,0.5-0.2,0.6-0.4C202.9,34.5,202.7,34.2,202.4,34.1z"/>
					<path id="XMLID_135_" class="st0" d="M189.6,41.8c-0.2,0-0.4-0.1-0.6-0.2c-0.2-0.1-0.4-0.4-0.4-0.6l-8.8-18.4
						c-0.1-0.3-0.1-0.6,0-0.8c0.1-0.3,0.3-0.5,0.6-0.6c0.5-0.2,1.2,0,1.5,0.5l8.1,17.1c0.7-0.7,1.6-1.7,2.7-2.6
						c3.2-2.5,6.7-3.4,9.9-2.5c0.6,0.2,0.9,0.8,0.8,1.3c-0.2,0.6-0.8,0.9-1.3,0.8c-0.6-0.2-1.3-0.3-1.9-0.3c-5,0-9,5.2-9.4,5.8
						c-0.1,0.1-0.2,0.3-0.5,0.4C190,41.8,189.8,41.8,189.6,41.8z M180.8,22L180.8,22l8.7,18.6c0,0,0,0.1,0,0.1l0.1,0.1c0,0,0,0,0,0
						c0,0,0.1-0.1,0.1-0.1c0.5-0.6,4.7-6.2,10.2-6.2c0.7,0,1.5,0.1,2.2,0.3c0.1,0,0.1,0,0.1-0.1c0-0.1,0-0.1-0.1-0.1v0
						c-2.9-0.8-6,0-9,2.3c-1.4,1.1-2.4,2.2-3,3c-0.1,0.1-0.3,0.2-0.4,0.2c-0.2,0-0.3-0.1-0.4-0.3L180.8,22
						C180.9,22,180.9,22,180.8,22z"/>
				</g>
			</g>
			<g id="XMLID_123_">
				<g id="XMLID_124_">
					<path id="XMLID_130_" class="st0" d="M199.2,49.2c-13.4,0-24.3-10.9-24.3-24.3s10.9-24.3,24.3-24.3c13.4,0,24.3,10.9,24.3,24.3
						S212.6,49.2,199.2,49.2z M199.2,1.8c-12.7,0-23.1,10.3-23.1,23.1s10.3,23.1,23.1,23.1c12.7,0,23.1-10.3,23.1-23.1
						S211.9,1.8,199.2,1.8z"/>
					<path id="XMLID_125_" class="st0" d="M199.2,49.7c-13.7,0-24.8-11.1-24.8-24.8S185.5,0,199.2,0C212.9,0,224,11.1,224,24.8
						S212.9,49.7,199.2,49.7z M199.2,1c-13.1,0-23.8,10.7-23.8,23.8s10.7,23.8,23.8,23.8c13.1,0,23.8-10.7,23.8-23.8
						S212.3,1,199.2,1z M199.2,48.4c-13,0-23.6-10.6-23.6-23.6s10.6-23.6,23.6-23.6c13,0,23.6,10.6,23.6,23.6S212.2,48.4,199.2,48.4
						z M199.2,2.3c-12.4,0-22.6,10.1-22.6,22.6s10.1,22.6,22.6,22.6s22.6-10.1,22.6-22.6S211.6,2.3,199.2,2.3z"/>
				</g>
			</g>
		</g>
		<g id="XMLID_88_">
			<g id="XMLID_99_">
				<g id="XMLID_110_">
					<path id="XMLID_118_" class="st0" d="M276.1,24h-1.6c-0.4-4-3.6-6.7-7.4-6.7c-2.7,0-5.1,1.4-6.4,3.6c-2.1-1-4.6-1-6.8,0
						c-1.3-2.2-3.7-3.6-6.4-3.6c-3.8,0-7,2.7-7.4,6.7h-1.6c-0.5,0-0.8,0-0.8,0.5s0.4,0.5,0.8,0.5h1.6c0.4,4,3.6,6.8,7.4,6.8
						c4.1,0,7.4-3.2,7.4-7.3c0-0.8-0.1-1.5-0.3-2.2c1.8-0.8,3.9-0.8,5.5,0c-0.2,0.7-0.4,1.5-0.4,2.3c0,4.1,3.3,7.2,7.4,7.2
						c3.8,0,7-2.8,7.4-6.8h1.6c0.5,0,0.8,0,0.8-0.5S276.5,24,276.1,24z M247.5,30.4c-3.2,0-5.8-2.6-5.8-5.8c0-3.2,2.6-5.8,5.8-5.8
						c3.2,0,5.8,2.6,5.8,5.8C253.3,27.8,250.7,30.4,247.5,30.4z M267.2,30.4c-3.2,0-5.8-2.6-5.8-5.8c0-3.2,2.6-5.8,5.8-5.8
						s5.8,2.6,5.8,5.8C272.9,27.8,270.3,30.4,267.2,30.4z"/>
					<path id="XMLID_111_" class="st0" d="M267.2,32.6c-4.4,0-7.9-3.6-7.9-7.9c0-0.7,0.1-1.3,0.3-2c-1.3-0.5-2.9-0.5-4.3,0
						c0.2,0.6,0.2,1.3,0.2,1.9c0,4.4-3.6,8-7.9,8c-3.9,0-7.2-2.6-7.8-6.6h-1.1c-0.7,0-1.3-0.8-1.3-1.5s0.6-1.5,1.3-1.5h1.1
						c0.6-4,3.9-6.5,7.8-6.5c2.7,0,5.2,1.4,6.6,3.7c2.1-0.8,4.5-0.8,6.5,0c1.5-2.2,4-3.7,6.6-3.7c3.9,0,7.2,2.5,7.8,6.5h1.1
						c0.7,0,1.3,0.8,1.3,1.5s-0.6,1.5-1.3,1.5H275C274.3,30,271,32.6,267.2,32.6z M257.4,21.3c1,0,2,0.2,2.8,0.6
						c0.2,0.1,0.3,0.4,0.3,0.6c-0.2,0.7-0.3,1.4-0.3,2.1c0,3.8,3.1,6.9,6.9,6.9c3.5,0,6.5-2.6,6.9-6.1c0-0.3,0.2-0.4,0.5-0.4h1.6
						c0.2,0,0.3-0.3,0.3-0.5c0-0.2-0.1-0.5-0.3-0.5h-1.6c-0.3,0-0.5-0.1-0.5-0.3c-0.4-3.5-3.4-6.1-6.9-6.1c-2.4,0-4.7,1.3-6,3.5
						c-0.1,0.2-0.4,0.3-0.6,0.2c-1.9-0.9-4.3-0.9-6.4,0.1c-0.2,0.1-0.5,0-0.6-0.2c-1.2-2.1-3.5-3.5-6-3.5c-3.5,0-6.5,2.5-6.9,6
						c0,0.3-0.2,0.3-0.5,0.3h-1.6c-0.2,0-0.3,0.3-0.3,0.5c0,0.2,0.1,0.5,0.3,0.5h1.6c0.3,0,0.5,0.2,0.5,0.4c0.4,3.5,3.4,6.1,6.9,6.1
						c3.8,0,6.9-3.1,6.9-6.9c0-0.7-0.1-1.4-0.3-2.1c-0.1-0.2,0-0.5,0.3-0.6C255.3,21.5,256.4,21.3,257.4,21.3z M267.2,30.9
						c-3.5,0-6.3-2.8-6.3-6.3c0-3.5,2.8-6.3,6.3-6.3c3.5,0,6.3,2.8,6.3,6.3C273.4,28.1,270.6,30.9,267.2,30.9z M267.2,19.3
						c-2.9,0-5.3,2.4-5.3,5.3c0,2.9,2.4,5.3,5.3,5.3c2.9,0,5.3-2.4,5.3-5.3C272.4,21.7,270.1,19.3,267.2,19.3z M247.5,30.9
						c-3.5,0-6.3-2.8-6.3-6.3c0-3.5,2.8-6.3,6.3-6.3s6.3,2.8,6.3,6.3C253.8,28.1,250.9,30.9,247.5,30.9z M247.5,19.3
						c-2.9,0-5.3,2.4-5.3,5.3c0,2.9,2.4,5.3,5.3,5.3c2.9,0,5.3-2.4,5.3-5.3C252.8,21.7,250.4,19.3,247.5,19.3z"/>
				</g>
				<g id="XMLID_105_">
					<path id="XMLID_26_" class="st0" d="M267.2,19.8c-2.6,0-4.8,2.1-4.8,4.8c0,0.5,0.4,0.8,0.8,0.8c0.5,0,0.8-0.4,0.8-0.8
						c0-1.7,1.4-3.1,3.1-3.1c0.5,0,0.8-0.4,0.8-0.8S267.6,19.8,267.2,19.8z"/>
					<path id="XMLID_106_" class="st0" d="M263.2,25.9c-0.7,0-1.3-0.6-1.3-1.3c0-2.9,2.4-5.3,5.3-5.3c0.7,0,1.3,0.6,1.3,1.3
						s-0.6,1.3-1.3,1.3c-1.4,0-2.6,1.2-2.6,2.6C264.5,25.3,263.9,25.9,263.2,25.9z M267.2,20.3c-2.4,0-4.3,1.9-4.3,4.3
						c0,0.2,0.1,0.3,0.3,0.3s0.3-0.1,0.3-0.3c0-2,1.6-3.6,3.6-3.6c0.2,0,0.3-0.1,0.3-0.3C267.5,20.5,267.3,20.3,267.2,20.3z"/>
				</g>
				<g id="XMLID_100_">
					<path id="XMLID_23_" class="st0" d="M247.5,19.8c-2.6,0-4.8,2.1-4.8,4.8c0,0.5,0.4,0.8,0.8,0.8c0.5,0,0.8-0.4,0.8-0.8
						c0-1.7,1.4-3.1,3.1-3.1c0.5,0,0.8-0.4,0.8-0.8S247.9,19.8,247.5,19.8z"/>
					<path id="XMLID_101_" class="st0" d="M243.6,25.9c-0.7,0-1.3-0.6-1.3-1.3c0-2.9,2.4-5.3,5.3-5.3c0.7,0,1.3,0.6,1.3,1.3
						s-0.6,1.3-1.3,1.3c-1.4,0-2.6,1.2-2.6,2.6C244.9,25.3,244.3,25.9,243.6,25.9z M247.5,20.3c-2.4,0-4.3,1.9-4.3,4.3
						c0,0.2,0.1,0.3,0.3,0.3s0.3-0.1,0.3-0.3c0-2,1.6-3.6,3.6-3.6c0.2,0,0.3-0.1,0.3-0.3C247.8,20.5,247.7,20.3,247.5,20.3z"/>
				</g>
			</g>
			<g id="XMLID_89_">
				<g id="XMLID_90_">
					<path id="XMLID_96_" class="st0" d="M257.3,49.4C243.9,49.4,233,38.5,233,25s10.9-24.3,24.3-24.3c13.4,0,24.3,10.9,24.3,24.3
						S270.7,49.4,257.3,49.4z M257.3,2c-12.7,0-23.1,10.3-23.1,23.1s10.3,23.1,23.1,23.1c12.7,0,23.1-10.3,23.1-23.1S270,2,257.3,2z
						"/>
					<path id="XMLID_91_" class="st0" d="M257.3,49.9c-13.7,0-24.8-11.1-24.8-24.8s11.1-24.8,24.8-24.8c13.7,0,24.8,11.1,24.8,24.8
						S271,49.9,257.3,49.9z M257.3,1.2c-13.1,0-23.8,10.7-23.8,23.8s10.7,23.8,23.8,23.8c13.1,0,23.8-10.7,23.8-23.8
						S270.5,1.2,257.3,1.2z M257.3,48.6c-13,0-23.6-10.6-23.6-23.6s10.6-23.6,23.6-23.6c13,0,23.6,10.6,23.6,23.6
						S270.3,48.6,257.3,48.6z M257.3,2.5c-12.4,0-22.6,10.1-22.6,22.6s10.1,22.6,22.6,22.6c12.4,0,22.6-10.1,22.6-22.6
						S269.8,2.5,257.3,2.5z"/>
				</g>
			</g>
		</g>
		<g id="XMLID_71_">
			<g id="XMLID_82_">
				<path id="XMLID_14_" class="st0" d="M330.5,14.3c-0.1-0.3-0.3-0.5-0.6-0.5c-8.6-0.5-15.2,1.8-20.4,7.1c-5,5.1-5.6,11.7-5.6,12.9
					c-0.8,1.6-1.4,3.3-2,5.2c-0.1,0.4,0.1,0.8,0.5,0.9c0.1,0,0.1,0,0.2,0c0.3,0,0.6-0.2,0.7-0.5c3.8-13.9,17.2-20,17.4-20
					c0.4-0.2,0.5-0.6,0.4-0.9c-0.2-0.4-0.6-0.5-0.9-0.4c-0.4,0.2-8.7,3.9-14.2,12.3c0.6-2.4,1.9-5.7,4.6-8.5
					c4.5-4.6,10.3-6.8,17.6-6.7c-1.4,1.3-3.7,3.6-5.3,6.3c-2.5,0.3-5,1.2-5.1,1.2c-0.4,0.1-0.5,0.5-0.4,0.9c0.1,0.3,0.4,0.5,0.7,0.5
					c0.1,0,0.2,0,0.2,0c0,0,1.8-0.6,3.8-1c0,0.1-0.1,0.2-0.1,0.3c-0.3,0.7-0.8,1.5-1.3,2.2c-3.4,0.4-6.7,1.6-6.8,1.6
					c-0.4,0.1-0.5,0.5-0.4,0.9c0.1,0.3,0.4,0.5,0.7,0.5c0.1,0,0.2,0,0.2,0c0,0,2.3-0.8,4.9-1.3c-2.9,2.8-7.3,4.9-11.4,5.2
					c-0.4,0-0.7,0.4-0.6,0.7c0,0.4,0.4,0.7,0.7,0.6c5.1-0.4,10.5-3.3,13.6-7.1c0,0,0.1-0.1,0.1-0.1c0.7-0.8,1.2-1.7,1.6-2.6
					c2.1-4.7,7.1-8.7,7.2-8.7C330.5,14.8,330.6,14.5,330.5,14.3z"/>
				<path id="XMLID_83_" class="st0" d="M302.6,40.3c-0.1,0-0.2,0-0.3,0c-0.6-0.2-1-0.8-0.8-1.5c0.5-1.8,1.1-3.5,1.9-5.2
					c0.1-1.5,0.7-8,5.7-13.1c5.3-5.4,12.1-7.7,20.8-7.2c0.5,0,0.9,0.4,1.1,0.8l0,0c0.1,0.5,0,1-0.4,1.3c-0.1,0-5,3.9-7,8.5
					c-0.4,0.9-1,1.8-1.7,2.8c0,0-0.1,0.1-0.1,0.2c-3.2,3.9-8.8,6.8-13.9,7.2c-0.3,0-0.6-0.1-0.9-0.3c-0.2-0.2-0.4-0.5-0.4-0.8
					c0,0,0-0.1,0-0.1c-1.1,2-2.1,4.1-2.8,6.6C303.6,39.9,303.1,40.3,302.6,40.3z M327.7,14.2c-7.4,0-13.2,2.3-17.9,7
					c-4.9,5-5.4,11.3-5.5,12.5c0,0.1,0,0.1,0,0.2c-0.8,1.6-1.5,3.4-1.9,5.1c0,0.1,0,0.2,0.1,0.2c0.1,0,0.2-0.1,0.2-0.1
					c3.9-14.2,17.5-20.3,17.6-20.3c0.1,0,0.1-0.2,0.1-0.3c0-0.1-0.1-0.1-0.1-0.1c0,0-0.1,0-0.2,0c-0.3,0.2-8.5,3.8-14,12.1
					c-0.1,0.2-0.4,0.3-0.6,0.2c-0.2-0.1-0.3-0.3-0.3-0.6c0.6-2.4,1.9-5.8,4.8-8.7c4.6-4.7,10.5-7,17.9-6.9c0.2,0,0.4,0.1,0.5,0.3
					c0.1,0.2,0,0.4-0.1,0.5c-1.2,1.1-3.5,3.4-5.2,6.2c-0.1,0.1-0.2,0.2-0.4,0.2c-2.5,0.3-4.9,1.1-5,1.2c-0.1,0-0.2,0.2-0.1,0.3
					c0,0.1,0.1,0.1,0.2,0.1c0.4-0.1,2.1-0.7,4-1c0.2,0,0.4,0,0.5,0.2c0.1,0.1,0.1,0.3,0.1,0.5l-0.1,0.2c-0.3,0.7-0.8,1.5-1.4,2.3
					c-0.1,0.1-0.2,0.2-0.3,0.2c-3.3,0.4-6.6,1.5-6.7,1.6c-0.1,0-0.2,0.2-0.1,0.3c0,0.1,0.1,0.1,0.2,0.1c0.1,0,2.4-0.8,5-1.3
					c0.2,0,0.4,0.1,0.5,0.3c0.1,0.2,0.1,0.4-0.1,0.6c-3.1,3-7.6,5-11.7,5.4c-0.1,0-0.2,0.1-0.2,0.2c0,0.1,0,0.1,0.1,0.1
					c0,0,0.1,0,0.1,0c4.9-0.4,10.2-3.1,13.3-6.9c0,0,0.1-0.1,0.1-0.1c0.7-0.8,1.2-1.7,1.6-2.5c2.1-4.9,7.3-8.9,7.3-8.9
					c0.1,0,0.1-0.1,0.1-0.2c0,0,0,0,0,0c0-0.1-0.1-0.1-0.2-0.1C329.1,14.2,328.4,14.2,327.7,14.2z M320.3,17.4c0.1,0,0.3,0,0.4,0.1
					c0.3,0.1,0.5,0.3,0.7,0.6c0.3,0.6,0,1.3-0.6,1.6c-0.1,0-8.4,3.8-13.7,12.1c0.1-0.1,0.3-0.1,0.5-0.2c3.3-0.2,6.8-1.7,9.6-3.8
					c-1.7,0.4-2.9,0.9-2.9,0.9c-0.6,0.2-1.3-0.1-1.5-0.7c-0.2-0.6,0.1-1.3,0.7-1.5c0.1-0.1,3.4-1.2,6.7-1.6c0.3-0.4,0.6-0.9,0.8-1.3
					c-1.4,0.3-2.6,0.7-2.7,0.8c-0.6,0.2-1.3-0.1-1.5-0.7c-0.2-0.6,0.1-1.3,0.7-1.5c0.3-0.1,2.5-0.9,5-1.2c1.3-2.2,3-4.1,4.3-5.3
					c-6.5,0.2-11.8,2.3-16,6.6c-1.6,1.7-2.7,3.5-3.5,5.2c5.5-6.7,12.2-9.7,12.5-9.9C320,17.5,320.2,17.4,320.3,17.4z"/>
			</g>
			<g id="XMLID_72_">
				<g id="XMLID_73_">
					<path id="XMLID_79_" class="st0" d="M315.5,49.2c-13.4,0-24.3-10.9-24.3-24.3s10.9-24.3,24.3-24.3s24.3,10.9,24.3,24.3
						S328.9,49.2,315.5,49.2z M315.5,1.8c-12.7,0-23.1,10.3-23.1,23.1s10.3,23.1,23.1,23.1s23.1-10.3,23.1-23.1S328.2,1.8,315.5,1.8
						z"/>
					<path id="XMLID_74_" class="st0" d="M315.5,49.7c-13.7,0-24.8-11.1-24.8-24.8S301.8,0,315.5,0s24.8,11.1,24.8,24.8
						S329.2,49.7,315.5,49.7z M315.5,1c-13.1,0-23.8,10.7-23.8,23.8s10.7,23.8,23.8,23.8s23.8-10.7,23.8-23.8S328.6,1,315.5,1z
						 M315.5,48.4c-13,0-23.6-10.6-23.6-23.6s10.6-23.6,23.6-23.6S339,11.8,339,24.8S328.5,48.4,315.5,48.4z M315.5,2.3
						c-12.4,0-22.6,10.1-22.6,22.6s10.1,22.6,22.6,22.6S338,37.3,338,24.8S327.9,2.3,315.5,2.3z"/>
				</g>
			</g>
		</g>
	</g>
</g>
</svg>
