<?xml version="1.0" encoding="utf-8"?>
<!-- Generator: Adobe Illustrator 22.1.0, SVG Export Plug-In . SVG Version: 6.00 Build 0)  -->
<svg version="1.1" id="Camada_1" xmlns="http://www.w3.org/2000/svg" xmlns:xlink="http://www.w3.org/1999/xlink" x="0px" y="0px"
	 viewBox="0 0 590 75" style="enable-background:new 0 0 590 75;" xml:space="preserve">
<style type="text/css">
	.st0{fill:#FFFFFF;}
	.st1{fill:#FFE370;}
	.st2{fill:#F4A9C7;}
	.st3{fill:#F8A5C7;}
	.st4{fill:#452E94;}
	.st5{fill:url(#XMLID_75_);}
	.st6{fill:#61CECE;}
	.st7{fill:#007575;}
	.st8{fill:#00B0B0;}
	.st9{fill:#E5F5FF;}
	.st10{fill:#FCD117;}
	.st11{fill:#EB0A66;}
	.st12{fill:#FFF1B9;}
</style>
<path id="XMLID_41_" class="st0" d="M312.8,36.2l-11.9-25.1c-0.1-0.2-0.2-0.3-0.3-0.4c-0.2-0.3-0.6-0.4-0.9-0.3
	c-0.5,0.1-11.9,3.3-16.5,10.9c-0.7-0.1-1.7-0.3-3.1-0.3c-3.3,0-8.5,0.9-15,5.4c-0.3,0.2-0.5,0.7-0.4,1l-0.1,0
	c-0.1,0-0.1,0.2-0.1,0.2l2.8,6c0.1,0.2,9.4,19.8,9.4,19.8c0,0.1,0.1,0.2,0.2,0.2c0,0.1,0.1,0.3,0.2,0.4c0.2,0.2,0.4,0.3,0.7,0.3
	c0.2,0,0.5-0.1,0.6-0.3c3.3-3.2,7.2-4.8,11.4-5c3.2-0.1,5.4,0.8,5.4,0.8c0.3,0.1,0.6,0.1,0.8-0.1c0.2,0,0.3,0,0.5-0.1
	c0.2-0.1,0.3-0.2,0.4-0.3c0.2-0.1,0.4-0.3,0.5-0.5c2.9-7.6,14.8-11.4,14.9-11.5c0.3-0.1,0.5-0.3,0.6-0.5
	C312.9,36.7,312.9,36.5,312.8,36.2z M312.8,36.2l-11.9-25.1c-0.1-0.2-0.2-0.3-0.3-0.4c-0.2-0.3-0.6-0.4-0.9-0.3
	c-0.5,0.1-11.9,3.3-16.5,10.9c-0.7-0.1-1.7-0.3-3.1-0.3c-3.3,0-8.5,0.9-15,5.4c-0.3,0.2-0.5,0.7-0.4,1l-0.1,0
	c-0.1,0-0.1,0.2-0.1,0.2l2.8,6c0.1,0.2,9.4,19.8,9.4,19.8c0,0.1,0.1,0.2,0.2,0.2c0,0.1,0.1,0.3,0.2,0.4c0.2,0.2,0.4,0.3,0.7,0.3
	c0.2,0,0.5-0.1,0.6-0.3c3.3-3.2,7.2-4.8,11.4-5c3.2-0.1,5.4,0.8,5.4,0.8c0.3,0.1,0.6,0.1,0.8-0.1c0.2,0,0.3,0,0.5-0.1
	c0.2-0.1,0.3-0.2,0.4-0.3c0.2-0.1,0.4-0.3,0.5-0.5c2.9-7.6,14.8-11.4,14.9-11.5c0.3-0.1,0.5-0.3,0.6-0.5
	C312.9,36.7,312.9,36.5,312.8,36.2z M312.8,36.2l-11.9-25.1c-0.1-0.2-0.2-0.3-0.3-0.4c-0.2-0.3-0.6-0.4-0.9-0.3
	c-0.5,0.1-11.9,3.3-16.5,10.9c-0.7-0.1-1.7-0.3-3.1-0.3c-3.3,0-8.5,0.9-15,5.4c-0.3,0.2-0.5,0.7-0.4,1l-0.1,0
	c-0.1,0-0.1,0.2-0.1,0.2l2.8,6c0.1,0.2,9.4,19.8,9.4,19.8c0,0.1,0.1,0.2,0.2,0.2c0,0.1,0.1,0.3,0.2,0.4c0.2,0.2,0.4,0.3,0.7,0.3
	c0.2,0,0.5-0.1,0.6-0.3c3.3-3.2,7.2-4.8,11.4-5c3.2-0.1,5.4,0.8,5.4,0.8c0.3,0.1,0.6,0.1,0.8-0.1c0.2,0,0.3,0,0.5-0.1
	c0.2-0.1,0.3-0.2,0.4-0.3c0.2-0.1,0.4-0.3,0.5-0.5c2.9-7.6,14.8-11.4,14.9-11.5c0.3-0.1,0.5-0.3,0.6-0.5
	C312.9,36.7,312.9,36.5,312.8,36.2z"/>
<path id="XMLID_141_" class="st1" d="M312.8,36.2l-11.9-25.1c-0.1-0.2-0.2-0.3-0.3-0.4c-0.2-0.3-0.6-0.4-0.9-0.3
	c-0.5,0.1-11.9,3.3-16.5,10.9c-0.7-0.1-1.7-0.3-3.1-0.3c-3.3,0-8.5,0.9-15,5.4c-0.3,0.2-0.5,0.7-0.4,1l-0.1,0
	c-0.1,0-0.1,0.2-0.1,0.2l2.8,6c0.1,0.2,9.4,19.8,9.4,19.8c0,0.1,0.1,0.2,0.2,0.2c0,0.1,0.1,0.3,0.2,0.4c0.2,0.2,0.4,0.3,0.7,0.3
	c0.2,0,0.5-0.1,0.6-0.3c3.3-3.2,7.2-4.8,11.4-5c3.2-0.1,5.4,0.8,5.4,0.8c0.3,0.1,0.6,0.1,0.8-0.1c0.2,0,0.3,0,0.5-0.1
	c0.2-0.1,0.3-0.2,0.4-0.3c0.2-0.1,0.4-0.3,0.5-0.5c2.9-7.6,14.8-11.4,14.9-11.5c0.3-0.1,0.5-0.3,0.6-0.5
	C312.9,36.7,312.9,36.5,312.8,36.2z M312.8,36.2l-11.9-25.1c-0.1-0.2-0.2-0.3-0.3-0.4c-0.2-0.3-0.6-0.4-0.9-0.3
	c-0.5,0.1-11.9,3.3-16.5,10.9c-0.7-0.1-1.7-0.3-3.1-0.3c-3.3,0-8.5,0.9-15,5.4c-0.3,0.2-0.5,0.7-0.4,1l-0.1,0
	c-0.1,0-0.1,0.2-0.1,0.2l2.8,6c0.1,0.2,9.4,19.8,9.4,19.8c0,0.1,0.1,0.2,0.2,0.2c0,0.1,0.1,0.3,0.2,0.4c0.2,0.2,0.4,0.3,0.7,0.3
	c0.2,0,0.5-0.1,0.6-0.3c3.3-3.2,7.2-4.8,11.4-5c3.2-0.1,5.4,0.8,5.4,0.8c0.3,0.1,0.6,0.1,0.8-0.1c0.2,0,0.3,0,0.5-0.1
	c0.2-0.1,0.3-0.2,0.4-0.3c0.2-0.1,0.4-0.3,0.5-0.5c2.9-7.6,14.8-11.4,14.9-11.5c0.3-0.1,0.5-0.3,0.6-0.5
	C312.9,36.7,312.9,36.5,312.8,36.2z M312.8,36.2l-11.9-25.1c-0.1-0.2-0.2-0.3-0.3-0.4c-0.2-0.3-0.6-0.4-0.9-0.3
	c-0.5,0.1-11.9,3.3-16.5,10.9c-0.7-0.1-1.7-0.3-3.1-0.3c-3.3,0-8.5,0.9-15,5.4c-0.3,0.2-0.5,0.7-0.4,1l-0.1,0
	c-0.1,0-0.1,0.2-0.1,0.2l2.8,6c0.1,0.2,9.4,19.8,9.4,19.8c0,0.1,0.1,0.2,0.2,0.2c0,0.1,0.1,0.3,0.2,0.4c0.2,0.2,0.4,0.3,0.7,0.3
	c0.2,0,0.5-0.1,0.6-0.3c3.3-3.2,7.2-4.8,11.4-5c3.2-0.1,5.4,0.8,5.4,0.8c0.3,0.1,0.6,0.1,0.8-0.1c0.2,0,0.3,0,0.5-0.1
	c0.2-0.1,0.3-0.2,0.4-0.3c0.2-0.1,0.4-0.3,0.5-0.5c2.9-7.6,14.8-11.4,14.9-11.5c0.3-0.1,0.5-0.3,0.6-0.5
	C312.9,36.7,312.9,36.5,312.8,36.2z"/>
<g id="XMLID_168_">
	<path id="XMLID_650_" class="st6" d="M238.2,35.2H12.7C7,35.2,2.4,30.6,2.4,24.9c0-3,2.4-5.5,5.4-5.5c1.5,0,2.7,1.2,2.7,2.7
		c0,0.6-0.5,1-1,1c0,0-0.1,0-0.1-0.1c0-0.7-0.5-1.2-1.2-1.2C7.5,21.8,7,22.4,7,23c0,1.4,1.1,2.5,2.5,2.5c1.9,0,3.5-1.6,3.5-3.5
		c0-2.8-2.3-5.1-5.1-5.1C3.5,17,0,20.3,0,24.7c0,7,5.7,12.5,12.7,12.5h225.5c5.7,0,10.3,4.8,10.3,10.4c0,3-2.4,5.5-5.4,5.5
		c-1.5,0-2.7-1.1-2.7-2.6c0-0.6,0.5-1,1-1c0,0,0.1,0.1,0.1,0.1c0,0.7,0.5,1.2,1.2,1.2c0.7,0,1.2-0.5,1.2-1.2c0-1.4-1.1-2.5-2.5-2.5
		c-1.9,0-3.5,1.6-3.5,3.5c0,2.8,2.3,5.1,5.1,5.1c4.3,0,7.9-3.5,7.9-7.9C250.9,40.9,245.2,35.2,238.2,35.2z"/>
	<path id="XMLID_172_" class="st6" d="M582.1,17.1c-2.8,0-5.1,2.3-5.1,5.1c0,1.9,1.6,3.5,3.5,3.5c1.4,0,2.5-1.1,2.5-2.5
		c0-0.7-0.5-1.2-1.2-1.2s-1.2,0.5-1.2,1.2c0,0,0,0.1-0.1,0.1c-0.6,0-1-0.5-1-1c0-1.5,1.2-2.7,2.7-2.7c3,0,5.5,2.4,5.5,5.4
		c0,5.7-4.6,10.2-10.3,10.2H351.8c-7,0-12.7,5.7-12.7,12.7c0,4.3,3.5,7.9,7.9,7.9c2.8,0,5.1-2.3,5.1-5.1c0-1.9-1.6-3.5-3.5-3.5
		c-1.4,0-2.5,1.1-2.5,2.5c0,0.7,0.5,1.2,1.2,1.2s1.2-0.5,1.2-1.2c0,0,0-0.1,0.1-0.1c0.6,0,1,0.5,1,1c0,1.5-1.2,2.7-2.7,2.7
		c-3,0-5.5-2.7-5.5-5.7c0-5.7,4.6-10.5,10.3-10.5h225.5c7,0,12.7-5.5,12.7-12.5C590,20.4,586.5,17.1,582.1,17.1z"/>
</g>
<g id="XMLID_143_">
	<g id="XMLID_150_">
		<path id="XMLID_160_" class="st6" d="M317,37.9L305,12.8c-0.1-0.2-0.2-0.3-0.3-0.4c-0.2-0.3-0.6-0.4-0.9-0.3
			c-0.5,0.1-11.9,3.3-16.5,10.9c-0.7-0.1-1.7-0.3-3.1-0.3c-3.3,0-8.5,0.9-15,5.4c-0.3,0.2-0.5,0.7-0.4,1l-0.1,0
			c-0.1,0-0.1,0.2-0.1,0.2l2.8,6c0.1,0.2,9.4,19.8,9.4,19.8c0,0.1,0.1,0.2,0.2,0.2c0,0.1,0.1,0.3,0.2,0.4c0.2,0.2,0.4,0.3,0.7,0.3
			c0.2,0,0.5-0.1,0.6-0.3c3.3-3.2,7.2-4.8,11.4-5c3.2-0.1,5.4,0.8,5.4,0.8c0.3,0.1,0.6,0.1,0.8-0.1c0.2,0,0.3,0,0.5-0.1
			c0.2-0.1,0.3-0.2,0.4-0.3c0.2-0.1,0.4-0.3,0.5-0.5c2.9-7.6,14.8-11.4,14.9-11.5c0.3-0.1,0.5-0.3,0.6-0.5
			C317.1,38.5,317.1,38.2,317,37.9z M293.9,49.1c-3,0.1-7.4,1-11.8,4.6l-11.6-24.4c5.9-3.9,10.7-4.8,13.6-4.8c1.3,0,2.3,0.2,2.8,0.3
			l11.7,24.7C297.6,49.3,295.9,49,293.9,49.1z M300.3,48.8l-11.7-24.6c0,0,0,0,0,0c3.6-6.2,12.8-9.4,14.9-10.1l11.3,23.7
			C312,38.9,303.6,42.4,300.3,48.8z"/>
		<path id="XMLID_155_" class="st6" d="M323,41.7l-13.7-28.8c-0.2-0.3-0.5-0.5-0.8-0.5c-0.1,0-0.3,0-0.4,0.1
			c-0.5,0.2-0.7,0.8-0.4,1.2l13.1,27.5c-1.2,0-3.8,0.2-6.9,1c-5.5,1.5-9.9,4.6-12.6,9c-0.1,0.2-0.2,0.5-0.1,0.7
			c0.1,0.2,0.2,0.4,0.4,0.6c0.1,0.1,0.3,0.1,0.5,0.1h0c0.3,0,0.6-0.2,0.8-0.4c5.5-8.7,16.2-9.2,18.3-9.2c0.2,0,0.3,0,0.3,0
			c0.1,0,0.3,0,0.4-0.1c0.3,0.1,0.5,0.1,0.8,0C323.1,42.7,323.3,42.1,323,41.7z"/>
		<path id="XMLID_151_" class="st6" d="M299.9,51.8c-1.2-0.3-2.4-0.5-3.7-0.5c-3.7,0-7.3,1.4-10.9,4.2c-2.1,1.7-3.8,3.5-4.8,4.7
			l-13-27.4c-0.2-0.3-0.5-0.5-0.8-0.5c-0.1,0-0.3,0-0.4,0.1c-0.5,0.2-0.7,0.8-0.4,1.2l13.5,28.5c0,0.2,0.2,0.5,0.4,0.6
			c0.2,0.1,0.3,0.2,0.5,0.2c0.1,0,0.3,0,0.4-0.1c0,0,0,0,0,0c0.2-0.1,0.3-0.2,0.4-0.4c0.7-1,7-9.2,15.1-9.2c1.1,0,2.1,0.1,3.2,0.4
			c0.1,0,0.2,0,0.2,0c0.4,0,0.8-0.3,0.9-0.7C300.7,52.5,300.4,52,299.9,51.8z"/>
	</g>
	<g id="XMLID_146_">
		<path id="XMLID_147_" class="st6" d="M295,75c-20.7,0-37.5-16.8-37.5-37.5S274.3,0,295,0c20.7,0,37.5,16.8,37.5,37.5
			S315.7,75,295,75z M295,2c-19.6,0-35.6,15.9-35.6,35.6s15.9,35.6,35.6,35.6c19.6,0,35.6-15.9,35.6-35.6S314.6,2,295,2z"/>
	</g>
</g>
</svg>
