<svg xmlns="http://www.w3.org/2000/svg" xmlns:xlink="http://www.w3.org/1999/xlink" viewBox="0 0 60 80"><defs><style>.cls-1{isolation:isolate;}.cls-2{fill:#fff;}.cls-3{mix-blend-mode:multiply;fill:url(#Gradiente_sem_nome_7);}.cls-4{fill:#f4a9c7;}.cls-5{fill:#452e94;}</style><linearGradient id="Gradiente_sem_nome_7" x1="964.82" y1="-11590.43" x2="964.82" y2="-11643.95" gradientTransform="translate(994.34 -11588.99) rotate(180)" gradientUnits="userSpaceOnUse"><stop offset="0.17" stop-color="#ffe370" stop-opacity="0"/><stop offset="0.24" stop-color="#ffe370" stop-opacity="0.19"/><stop offset="0.37" stop-color="#ffe370" stop-opacity="0.47"/><stop offset="0.48" stop-color="#ffe370" stop-opacity="0.7"/><stop offset="0.58" stop-color="#ffe370" stop-opacity="0.86"/><stop offset="0.66" stop-color="#ffe370" stop-opacity="0.96"/><stop offset="0.7" stop-color="#ffe370"/></linearGradient></defs><title>03_ícone botão ESCOLHA DO PONTO DE VISTA</title><g class="cls-1"><g id="Camada_1" data-name="Camada 1"><g id="_Group_" data-name="&lt;Group&gt;"><path id="_Path_" data-name="&lt;Path&gt;" class="cls-2" d="M9,50.25A33.59,33.59,0,0,1,26.37,55h6.31c4.13-2.71,9.68-4.43,17.37-4.68V1.44H9Z"/><path id="_Path_2" data-name="&lt;Path&gt;" class="cls-3" d="M9,50.25A33.59,33.59,0,0,1,26.37,55h6.31c4.13-2.71,9.68-4.43,17.37-4.68V1.44H9Z"/><g id="_Group_2" data-name="&lt;Group&gt;"><path id="_Path_3" data-name="&lt;Path&gt;" class="cls-4" d="M51.72,51.7a28.8,28.8,0,0,0-17.36,5.79V78.9a28.79,28.79,0,0,1,17.36-5.78Z"/><rect id="_Path_4" data-name="&lt;Path&gt;" class="cls-4" x="28.04" y="57.49" width="6.31" height="21.41"/><path id="_Path_5" data-name="&lt;Path&gt;" class="cls-4" d="M10.68,51.7A28.84,28.84,0,0,1,28,57.49V78.9a28.83,28.83,0,0,0-17.36-5.78Z"/></g><g id="_Group_3" data-name="&lt;Group&gt;"><path id="_Path_6" data-name="&lt;Path&gt;" class="cls-5" d="M30,45.3c-7.67,0-12.43-3.9-12.43-10.18a1,1,0,0,1,.64-.93c2.45-.95,3.65-2.52,3.65-4.78a1,1,0,1,1,2,0,6.72,6.72,0,0,1-4.27,6.36c.44,7,8,7.53,10.41,7.53s10-.56,10.41-7.52a6.69,6.69,0,0,1-4.27-6.37,1,1,0,1,1,2,0c0,2.27,1.2,3.84,3.65,4.78a1,1,0,0,1,.64.93C42.43,41.4,37.67,45.3,30,45.3Z"/></g><g id="_Group_4" data-name="&lt;Group&gt;"><path id="_Path_7" data-name="&lt;Path&gt;" class="cls-5" d="M57,61.21a1,1,0,0,1-1-.93c0-.68-.1-1.4-.14-2.14-.52-8.32-1.17-18.68-9-20.62l-4.55-1.13c-.6,5.53-5.22,8.91-12.36,8.91s-11.76-3.38-12.36-8.91L13.1,37.52c-7.84,1.94-8.48,12.3-9,20.62,0,.74-.09,1.46-.14,2.14a1,1,0,0,1-1.06.93A1,1,0,0,1,2,60.14c.05-.68.09-1.39.14-2.12.53-8.5,1.25-20.15,10.5-22.44l5.72-1.43a1,1,0,0,1,.85.18,1,1,0,0,1,.39.79c0,7.59,8,8.18,10.43,8.18s10.43-.59,10.43-8.18a1,1,0,0,1,.39-.79,1,1,0,0,1,.85-.18l5.72,1.43c9.25,2.29,10,13.94,10.5,22.44,0,.73.09,1.44.14,2.12a1,1,0,0,1-.93,1.07Z"/></g><g id="_Group_5" data-name="&lt;Group&gt;"><path id="_Compound_Path_" data-name="&lt;Compound Path&gt;" class="cls-5" d="M29.8,32.68c-7.79,0-14.13-7.77-14.13-17.33C15.67,6.56,21.08,1.1,29.8,1.1S43.93,6.56,43.93,15.35C43.93,24.91,37.59,32.68,29.8,32.68Zm0-29.58c-7.6,0-12.13,4.58-12.13,12.25,0,8.45,5.44,15.33,12.13,15.33S41.93,23.8,41.93,15.35C41.93,7.68,37.39,3.1,29.8,3.1Z"/></g><g id="_Group_6" data-name="&lt;Group&gt;"><g id="_Group_7" data-name="&lt;Group&gt;"><path id="_Compound_Path_2" data-name="&lt;Compound Path&gt;" class="cls-5" d="M25.38,24.74H22.85a3.29,3.29,0,0,1,0-6.58h2.53a3.29,3.29,0,1,1,0,6.58Zm-2.53-4.58a1.29,1.29,0,0,0,0,2.58h2.53a1.29,1.29,0,1,0,0-2.58Z"/></g><g id="_Group_8" data-name="&lt;Group&gt;"><path id="_Compound_Path_3" data-name="&lt;Compound Path&gt;" class="cls-5" d="M37.15,24.74H34.62a3.29,3.29,0,1,1,0-6.58h2.53a3.29,3.29,0,1,1,0,6.58Zm-2.53-4.58a1.29,1.29,0,1,0,0,2.58h2.53a1.29,1.29,0,1,0,0-2.58Z"/></g><g id="_Group_9" data-name="&lt;Group&gt;"><path id="_Path_8" data-name="&lt;Path&gt;" class="cls-5" d="M32.33,21.74H27.67a1,1,0,0,1,0-2h4.66a1,1,0,0,1,0,2Z"/></g></g><g id="_Group_10" data-name="&lt;Group&gt;"><g id="_Group_11" data-name="&lt;Group&gt;"><g id="_Group_12" data-name="&lt;Group&gt;"><path id="_Compound_Path_4" data-name="&lt;Compound Path&gt;" class="cls-5" d="M32.68,77.36a1,1,0,0,1-.44-.1,1,1,0,0,1-.56-.9V55a1,1,0,0,1,.4-.8,29.69,29.69,0,0,1,18-6,1,1,0,0,1,1,1V70.57a1,1,0,0,1-1,1,27.77,27.77,0,0,0-16.77,5.59A1,1,0,0,1,32.68,77.36Zm1-21.91v19a29.63,29.63,0,0,1,15.37-4.85V50.18A27.65,27.65,0,0,0,33.68,55.45Z"/></g><g id="_Group_13" data-name="&lt;Group&gt;"><path id="_Compound_Path_5" data-name="&lt;Compound Path&gt;" class="cls-5" d="M32.68,77.36H26.37a1,1,0,0,1-1-1V55a1,1,0,0,1,1-1h6.31a1,1,0,0,1,1,1V76.36A1,1,0,0,1,32.68,77.36Zm-5.31-2h4.31V56H27.37Z"/></g><g id="_Group_14" data-name="&lt;Group&gt;"><path id="_Compound_Path_6" data-name="&lt;Compound Path&gt;" class="cls-5" d="M26.37,77.36a1,1,0,0,1-.6-.2A27.77,27.77,0,0,0,9,71.57a1,1,0,0,1-1-1V49.16a1,1,0,0,1,1-1,29.69,29.69,0,0,1,18,6,1,1,0,0,1,.4.8V76.36a1,1,0,0,1-.56.9A1,1,0,0,1,26.37,77.36ZM10,69.59a29.63,29.63,0,0,1,15.37,4.85v-19A27.65,27.65,0,0,0,10,50.18Z"/></g></g><g id="_Group_15" data-name="&lt;Group&gt;"><g id="_Group_16" data-name="&lt;Group&gt;"><path id="_Path_9" data-name="&lt;Path&gt;" class="cls-5" d="M31.11,56a1,1,0,0,1-.65-.23h0A1,1,0,0,1,30.1,55a1,1,0,0,1,.24-.73,29.88,29.88,0,0,1,16.25-9.74,1,1,0,0,1,.76.15,1,1,0,0,1,.44.65A1,1,0,0,1,47,46.52,27.86,27.86,0,0,0,31.87,55.6,1,1,0,0,1,31.11,56Z"/></g><g id="_Group_17" data-name="&lt;Group&gt;"><path id="_Path_10" data-name="&lt;Path&gt;" class="cls-5" d="M29.53,56A1,1,0,0,1,29,55.8h0a1,1,0,0,1-.33-1.35,29.61,29.61,0,0,1,6-7.26A30,30,0,0,1,43,42a1,1,0,0,1,1.29.51,1,1,0,0,1,0,.79,1,1,0,0,1-.54.57A27.77,27.77,0,0,0,30.39,55.46a1,1,0,0,1-.62.46Z"/></g><g id="_Group_18" data-name="&lt;Group&gt;"><path id="_Path_11" data-name="&lt;Path&gt;" class="cls-5" d="M27.94,56a1,1,0,0,1-.76-.35,28.07,28.07,0,0,0-6.7-5.69A28,28,0,0,0,12,46.52a1,1,0,0,1-.77-1.16,1,1,0,0,1,1.2-.81,29.86,29.86,0,0,1,9.07,3.64,29.74,29.74,0,0,1,7.18,6.1A1,1,0,0,1,29,55a1,1,0,0,1-.35.69A1,1,0,0,1,27.94,56Z"/></g><g id="_Group_19" data-name="&lt;Group&gt;"><path id="_Path_12" data-name="&lt;Path&gt;" class="cls-5" d="M29.52,56a.85.85,0,0,1-.23,0,1,1,0,0,1-.63-.46,27.94,27.94,0,0,0-5.61-6.77,27.73,27.73,0,0,0-7.74-4.8,1,1,0,0,1-.55-.56,1,1,0,0,1,0-.79A1,1,0,0,1,16.08,42a30,30,0,0,1,8.3,5.16,29.61,29.61,0,0,1,6,7.26,1,1,0,0,1-.33,1.35A1,1,0,0,1,29.52,56Z"/></g></g></g></g></g></g></svg>