<svg id="Camada_1" data-name="Camada 1" xmlns="http://www.w3.org/2000/svg" viewBox="0 0 60 80"><defs><style>.cls-1{fill:#f8a5c7;}.cls-2{fill:#452e94;}.cls-3{fill:#ffe370;}</style></defs><title>04_ícone botão respeito a possibilidades e limites </title><g id="_Group_" data-name="&lt;Group&gt;"><path id="_Path_" data-name="&lt;Path&gt;" class="cls-1" d="M53.18,42V39.61c-4-1.62-7-2.54-11-2.54a25.3,25.3,0,0,0-10.82,2.42,23.66,23.66,0,0,0-10.44-2.42,22.82,22.82,0,0,0-10.73,2.54V42h-6V79h54V42Z"/><g id="_Group_2" data-name="&lt;Group&gt;"><g id="_Group_3" data-name="&lt;Group&gt;"><g id="_Group_4" data-name="&lt;Group&gt;"><g id="_Group_5" data-name="&lt;Group&gt;"><path id="_Compound_Path_" data-name="&lt;Compound Path&gt;" class="cls-2" d="M29,77.46H2.82a1,1,0,0,1-1-1V40.21a1,1,0,0,1,1-1h4a1,1,0,0,1,1,1V71.39a26.49,26.49,0,0,1,21.6.65,1,1,0,0,1,.56.9v3.52A1,1,0,0,1,29,77.46Zm-25.18-2H28V73.57a24.46,24.46,0,0,0-20.72.27,1,1,0,0,1-1.44-.9V41.21h-2Z"/></g><g id="_Group_6" data-name="&lt;Group&gt;"><g id="_Group_7" data-name="&lt;Group&gt;"><path id="_Compound_Path_2" data-name="&lt;Compound Path&gt;" class="cls-2" d="M29,73.94a1,1,0,0,1-.44-.1,24.42,24.42,0,0,0-21.28,0,1,1,0,0,1-1.44-.9V37.69a1,1,0,0,1,.57-.9,26.43,26.43,0,0,1,23,0,1,1,0,0,1,.56.9V72.94a1,1,0,0,1-.47.85A1,1,0,0,1,29,73.94ZM17.92,69.4a26.19,26.19,0,0,1,10.08,2V38.32a24.5,24.5,0,0,0-20.16,0V71.39A26.26,26.26,0,0,1,17.92,69.4Z"/></g><g id="_Group_8" data-name="&lt;Group&gt;"><g id="_Group_9" data-name="&lt;Group&gt;"><path id="_Path_2" data-name="&lt;Path&gt;" class="cls-2" d="M11.88,44.85a1,1,0,0,1-1-.76,1.08,1.08,0,0,1,.11-.77,1,1,0,0,1,.62-.47,26.71,26.71,0,0,1,12.57,0,1,1,0,0,1,.73,1.22,1,1,0,0,1-1.21.75,24.25,24.25,0,0,0-11.61,0A1,1,0,0,1,11.88,44.85Z"/></g><g id="_Group_10" data-name="&lt;Group&gt;"><path id="_Path_3" data-name="&lt;Path&gt;" class="cls-2" d="M11.88,50.89a1,1,0,0,1-1-.76,1.08,1.08,0,0,1,.11-.77,1,1,0,0,1,.62-.46,26.45,26.45,0,0,1,12.57,0,1,1,0,0,1,.62.45,1.06,1.06,0,0,1,.11.76,1,1,0,0,1-1.21.75,24.51,24.51,0,0,0-11.61,0A1,1,0,0,1,11.88,50.89Z"/></g><g id="_Group_11" data-name="&lt;Group&gt;"><path id="_Path_4" data-name="&lt;Path&gt;" class="cls-2" d="M11.88,56.93a1,1,0,0,1-.52-.15,1,1,0,0,1-.45-.62,1,1,0,0,1,.73-1.22,26.45,26.45,0,0,1,12.57,0,1,1,0,0,1,.73,1.2,1,1,0,0,1-1.21.76,24.51,24.51,0,0,0-11.61,0A1,1,0,0,1,11.88,56.93Z"/></g><g id="_Group_12" data-name="&lt;Group&gt;"><path id="_Path_5" data-name="&lt;Path&gt;" class="cls-2" d="M11.88,63a1.07,1.07,0,0,1-.52-.14,1,1,0,0,1-.45-.62A1,1,0,0,1,11.64,61a26.71,26.71,0,0,1,12.57,0,1,1,0,0,1,.73,1.21,1.07,1.07,0,0,1-.45.63,1,1,0,0,1-.76.13,24.25,24.25,0,0,0-11.61,0Z"/></g></g></g></g><g id="_Group_13" data-name="&lt;Group&gt;"><path id="_Compound_Path_3" data-name="&lt;Compound Path&gt;" class="cls-2" d="M55.19,77.46H29a1,1,0,0,1-1-1V72.94a1,1,0,0,1,.56-.9,26.49,26.49,0,0,1,21.6-.65V40.21a1,1,0,0,1,1-1h4a1,1,0,0,1,1,1V76.46A1,1,0,0,1,55.19,77.46ZM30,75.46H54.19V41.21h-2V72.94a1,1,0,0,1-.47.85,1,1,0,0,1-1,0A24.46,24.46,0,0,0,30,73.57Z"/></g><g id="_Group_14" data-name="&lt;Group&gt;"><path id="_Compound_Path_4" data-name="&lt;Compound Path&gt;" class="cls-2" d="M29,73.94a1,1,0,0,1-.9-.56,1,1,0,0,1,.45-1.33l15.57-7.79V35.66a1,1,0,0,1,1.19-1,26.17,26.17,0,0,1,6.29,2.11,1,1,0,0,1,.56.9V72.94a1,1,0,0,1-.47.85,1,1,0,0,1-1,0,24.42,24.42,0,0,0-21.28,0A1,1,0,0,1,29,73.94ZM40.08,69.4a26.22,26.22,0,0,1,10.08,2V38.32a25.4,25.4,0,0,0-4-1.41v28a1,1,0,0,1-.56.9l-7.37,3.69C38.81,69.42,39.44,69.4,40.08,69.4Z"/></g></g><g id="_Group_15" data-name="&lt;Group&gt;"><g id="_Group_16" data-name="&lt;Group&gt;"><path id="_Compound_Path_5" data-name="&lt;Compound Path&gt;" class="cls-2" d="M29,73.94a1,1,0,0,1-1-1V37.69a1,1,0,0,1,.55-.9l16.12-8a1,1,0,0,1,1,0,1,1,0,0,1,.48.85V64.88a1,1,0,0,1-.56.9l-16.11,8A1,1,0,0,1,29,73.94Zm1-35.63v33l14.12-7.06v-33Z"/></g><g id="_Group_17" data-name="&lt;Group&gt;"><g id="_Group_18" data-name="&lt;Group&gt;"><path id="_Path_6" data-name="&lt;Path&gt;" class="cls-2" d="M34,44.24a1,1,0,0,1-.89-.55v0a1,1,0,0,1,.45-1.34l6-3a1,1,0,0,1,.9,1.81l-6,3A1,1,0,0,1,34,44.24Z"/></g><g id="_Group_19" data-name="&lt;Group&gt;"><path id="_Path_7" data-name="&lt;Path&gt;" class="cls-2" d="M34,50.28a1,1,0,0,1-.89-.55v0a1,1,0,0,1,.45-1.34l6-3a1,1,0,0,1,1.34.44,1,1,0,0,1-.44,1.36l-6,3A1,1,0,0,1,34,50.28Z"/></g><g id="_Group_20" data-name="&lt;Group&gt;"><path id="_Path_8" data-name="&lt;Path&gt;" class="cls-2" d="M34,56.32a1,1,0,0,1-.89-.55v0a1,1,0,0,1,.45-1.34l6-3a1,1,0,0,1,1.34.45,1,1,0,0,1-.44,1.36l-6,3A1,1,0,0,1,34,56.32Z"/></g><g id="_Group_21" data-name="&lt;Group&gt;"><path id="_Path_9" data-name="&lt;Path&gt;" class="cls-2" d="M34,62.37a1,1,0,0,1-.89-.56h0a1,1,0,0,1,.45-1.35l6-3a1,1,0,0,1,.9,1.81l-6,3A1,1,0,0,1,34,62.37Z"/></g></g></g></g><g id="_Group_22" data-name="&lt;Group&gt;"><g id="_Group_23" data-name="&lt;Group&gt;"><rect id="_Rectangle_" data-name="&lt;Rectangle&gt;" class="cls-3" x="13.67" y="4.49" width="34.34" height="20.58" rx="7.32" ry="7.32"/></g><g id="_Group_24" data-name="&lt;Group&gt;"><path id="_Compound_Path_6" data-name="&lt;Compound Path&gt;" class="cls-2" d="M32.3,29.74a1,1,0,0,1-1-1V23.68h-16a5.13,5.13,0,0,1-5.13-5.13V6.1A5.13,5.13,0,0,1,15.29,1H41.38A5.13,5.13,0,0,1,46.51,6.1V18.55a5.13,5.13,0,0,1-5.13,5.13H38.85L33,29.45A1,1,0,0,1,32.3,29.74ZM15.29,3A3.13,3.13,0,0,0,12.16,6.1V18.55a3.13,3.13,0,0,0,3.13,3.13h17a1,1,0,0,1,1,1v3.67L37.74,22a1,1,0,0,1,.7-.29h2.94a3.13,3.13,0,0,0,3.13-3.13V6.1A3.13,3.13,0,0,0,41.38,3Z"/></g></g></g></svg>