<svg id="Camada_1" data-name="Camada 1" xmlns="http://www.w3.org/2000/svg" viewBox="0 0 60 80"><defs><style>.cls-1{fill:#ffe370;}.cls-2{fill:#f4a9c7;}.cls-3{fill:#452e94;}</style></defs><title>05_ícone botão_consequ~encia ultrapassagem de limites</title><g id="_Group_" data-name="&lt;Group&gt;"><path id="_Path_" data-name="&lt;Path&gt;" class="cls-1" d="M49.07,12.11a9.22,9.22,0,0,0-2.83.46A16.14,16.14,0,0,0,33.69,4.49l-7,9.65h8.48l-7.75,9h8.25l-7.43,12h7.43l-4.49,5.59c.45,0,.9-.12,1.36-.12a15.24,15.24,0,0,0,6.81-1.72,6.41,6.41,0,0,0,2.83.62A7.17,7.17,0,0,0,48.86,34h.21c5.49,0,10-4.9,10-10.93S54.56,12.11,49.07,12.11Z"/><path id="_Path_2" data-name="&lt;Path&gt;" class="cls-2" d="M24.18,37.14l7.43-11H23.37l7.74-10H22.63L29.68,7c-.39,0-.79.17-1.2.17A15.65,15.65,0,0,0,17.82,11.6a6.46,6.46,0,0,0-2.74-.55c-3.59,0-6.54,3-7,6.8C3.51,18.72,0,23.14,0,28.45c0,5.94,4.39,10.76,9.79,10.76a9.23,9.23,0,0,0,6.06-2.3,15.85,15.85,0,0,0,11.27,6.32l4.49-6.09Z"/><g id="_Group_2" data-name="&lt;Group&gt;"><circle id="_Path_3" data-name="&lt;Path&gt;" class="cls-1" cx="43.1" cy="50.22" r="4.33"/></g><g id="_Group_3" data-name="&lt;Group&gt;"><circle id="_Path_4" data-name="&lt;Path&gt;" class="cls-1" cx="37.26" cy="63.85" r="2.62"/></g><g id="_Group_4" data-name="&lt;Group&gt;"><circle id="_Path_5" data-name="&lt;Path&gt;" class="cls-1" cx="26.8" cy="73.83" r="1.89"/></g><g id="_Group_5" data-name="&lt;Group&gt;"><path id="_Compound_Path_" data-name="&lt;Compound Path&gt;" class="cls-3" d="M41.76,55.16a5.68,5.68,0,1,1,5.68-5.68A5.68,5.68,0,0,1,41.76,55.16Zm0-9.39a3.72,3.72,0,1,0,3.71,3.71A3.72,3.72,0,0,0,41.76,45.77Z"/></g><g id="_Group_6" data-name="&lt;Group&gt;"><path id="_Compound_Path_2" data-name="&lt;Compound Path&gt;" class="cls-3" d="M36.67,67.53a4.2,4.2,0,1,1,4.2-4.2A4.21,4.21,0,0,1,36.67,67.53Zm0-6.43a2.23,2.23,0,1,0,2.23,2.23A2.23,2.23,0,0,0,36.67,61.1Z"/></g><g id="_Group_7" data-name="&lt;Group&gt;"><path id="_Compound_Path_3" data-name="&lt;Compound Path&gt;" class="cls-3" d="M25.85,76.53a3.33,3.33,0,1,1,3.33-3.33A3.33,3.33,0,0,1,25.85,76.53Zm0-4.69a1.36,1.36,0,1,0,1.36,1.36A1.37,1.37,0,0,0,25.85,71.84Z"/></g><g id="_Group_8" data-name="&lt;Group&gt;"><path id="_Path_6" data-name="&lt;Path&gt;" class="cls-3" d="M31.58,41.49a4.87,4.87,0,0,1-.54,0,1,1,0,0,1-.89-1.06,1,1,0,0,1,1.07-.9,5.08,5.08,0,0,0,.78,0h.49A14.15,14.15,0,0,0,38.86,38a1,1,0,0,1,.87,0,5.44,5.44,0,0,0,2.4.54,6.21,6.21,0,0,0,5.78-4.79,1,1,0,0,1,1-.73H49c5,0,9-4.46,9-9.94s-4-9.94-9-9.94a8.17,8.17,0,0,0-2.53.41,1,1,0,0,1-1.15-.44A15,15,0,0,0,33.61,5.55a4.43,4.43,0,0,1-.51-.06c-.2,0-.41,0-.61,0a14.24,14.24,0,0,0-4.11.6,1,1,0,1,1-.57-1.89,16.4,16.4,0,0,1,4.68-.68,8.5,8.5,0,0,1,.87.07l.41,0a16.9,16.9,0,0,1,12.91,7.83,10.21,10.21,0,0,1,2.39-.29C55.1,11.13,60,16.47,60,23c0,6.38-4.63,11.6-10.42,11.89a8.1,8.1,0,0,1-7.45,5.53,7.49,7.49,0,0,1-2.82-.54,16,16,0,0,1-6.82,1.56h-.91Z"/></g><g id="_Group_9" data-name="&lt;Group&gt;"><path id="_Path_7" data-name="&lt;Path&gt;" class="cls-3" d="M28.13,41.48H28a17,17,0,0,1-11.35-6.19A10,10,0,0,1,10.8,37.2C4.85,37.2,0,31.93,0,25.46,0,20,3.44,15.33,8.25,14.07a8.19,8.19,0,0,1,7.83-6.94,7.32,7.32,0,0,1,2.55.47,16.52,16.52,0,0,1,6.18-3.45A1,1,0,0,1,25.37,6,14.7,14.7,0,0,0,19.5,9.46a1,1,0,0,1-1.09.17,5.57,5.57,0,0,0-2.33-.53,6.29,6.29,0,0,0-6,5.88,1,1,0,0,1-.79.86C5.06,16.65,2,20.69,2,25.46c0,5.39,4,9.77,8.81,9.77a8.18,8.18,0,0,0,5.41-2.07,1,1,0,0,1,.75-.24,1,1,0,0,1,.68.39,15.18,15.18,0,0,0,10.57,6.2,1,1,0,0,1-.08,2Z"/></g></g></svg>