<svg id="Camada_1" data-name="Camada 1" xmlns="http://www.w3.org/2000/svg" viewBox="0 0 100 95"><defs><style>.cls-1{fill:#61cece;}.cls-2{fill:#007575;}</style></defs><title>06_sumário narrativo X cena imediata</title><g id="_Group_" data-name="&lt;Group&gt;"><polygon id="_Path_" data-name="&lt;Path&gt;" class="cls-1" points="100 15.78 85.5 1.27 54.8 31.97 24.1 1.27 9.6 15.78 40.3 46.47 9.6 77.17 24.1 91.67 54.8 60.98 85.5 91.67 100 77.17 69.3 46.47 100 15.78"/><g id="_Group_2" data-name="&lt;Group&gt;"><path id="_Compound_Path_" data-name="&lt;Compound Path&gt;" class="cls-2" d="M77.29,94.09,46.59,63.4,15.9,94.09,0,78.2,30.7,47.5,0,16.8,15.9.91,46.59,31.6,77.29.91,93.19,16.8,62.49,47.5l30.7,30.7ZM46.59,60.61l30.7,30.7L90.4,78.2,59.71,47.5,90.4,16.8,77.29,3.69l-30.7,30.7L15.9,3.69,2.79,16.8,33.48,47.5,2.79,78.2,15.9,91.31Z"/></g></g></svg>