<svg id="Camada_1" data-name="Camada 1" xmlns="http://www.w3.org/2000/svg" viewBox="0 0 35 435"><defs><style>.cls-1{fill:#007575;}</style></defs><title>07_divisor de texto box carrosel </title><g id="_Group_" data-name="&lt;Group&gt;"><g id="_Group_2" data-name="&lt;Group&gt;"><path id="_Path_" data-name="&lt;Path&gt;" class="cls-1" d="M23.47,435a17.08,17.08,0,0,1-1.75-.08C9.9,433.6,9.5,425.28,9.5,414.73V164.8a1,1,0,0,1,2,0V414.65c0,10.79.34,17.26,10.49,18.39a9.76,9.76,0,0,0,7.58-2.32A10.47,10.47,0,0,0,33,422.93a6.61,6.61,0,0,0-6.57-6.81,4.23,4.23,0,0,0-4.22,4.34,3,3,0,0,0,3,2.89c.29,0,.85,0,1-.19s.23-.34.12-1.2a.95.95,0,0,1,1.88-.25,3.27,3.27,0,0,1-.57,2.7,3.09,3.09,0,0,1-2.44.83,4.81,4.81,0,0,1-4.84-4.78,6.18,6.18,0,0,1,6.13-6.23,8.52,8.52,0,0,1,8.51,8.7,12.3,12.3,0,0,1-4,9.2A11.13,11.13,0,0,1,23.47,435Z"/></g><g id="_Group_3" data-name="&lt;Group&gt;"><path id="_Path_2" data-name="&lt;Path&gt;" class="cls-1" d="M23.5,271.23a1,1,0,0,1-1-1V19.86c0-10.47.05-16.79-9.95-17.9A9.22,9.22,0,0,0,5.23,4.25a10.42,10.42,0,0,0-3.35,7.82,6.67,6.67,0,0,0,6.66,6.81,4.26,4.26,0,0,0,4.26-4.34,2.92,2.92,0,0,0-2.94-2.89c-.45,0-.94,0-1.13.25a1.7,1.7,0,0,0-.14,1.18.94.94,0,1,1-1.87.25,3.23,3.23,0,0,1,.59-2.68,3.25,3.25,0,0,1,2.56-.89,4.8,4.8,0,0,1,4.82,4.78,6.2,6.2,0,0,1-6.15,6.23A8.53,8.53,0,0,1,0,12.07,12.32,12.32,0,0,1,4,2.84,11.17,11.17,0,0,1,12.81.08C24.5,1.38,24.5,9.54,24.5,19.86V270.28A1,1,0,0,1,23.5,271.23Z"/></g></g></svg>