<svg id="Camada_1" data-name="Camada 1" xmlns="http://www.w3.org/2000/svg" viewBox="0 0 60 37"><defs><style>.cls-1{fill:#f4a9c7;}.cls-2{fill:#452e94;}</style></defs><title>08_aspas roxo</title><g id="_Group_" data-name="&lt;Group&gt;"><circle id="_Path_" data-name="&lt;Path&gt;" class="cls-1" cx="15.73" cy="24.06" r="12.94"/><circle id="_Path_2" data-name="&lt;Path&gt;" class="cls-1" cx="47.06" cy="24.06" r="12.94"/><g id="_Group_2" data-name="&lt;Group&gt;"><g id="_Group_3" data-name="&lt;Group&gt;"><path id="_Path_3" data-name="&lt;Path&gt;" class="cls-2" d="M43.4,33.77a12.94,12.94,0,1,0,0-25.87h-.35C43.81,3.15,47.84,0,47.84,0A22.75,22.75,0,0,0,30.56,19.27h0a13.67,13.67,0,0,0-.1,1.58A12.93,12.93,0,0,0,43.4,33.77Z"/></g><g id="_Group_4" data-name="&lt;Group&gt;"><path id="_Path_4" data-name="&lt;Path&gt;" class="cls-2" d="M12.94,33.77a12.94,12.94,0,1,0,0-25.87h-.35C13.35,3.15,17.38,0,17.38,0A22.75,22.75,0,0,0,.09,19.27h0A11.75,11.75,0,0,0,0,20.84,12.93,12.93,0,0,0,12.94,33.77Z"/></g></g></g></svg>