<?xml version="1.0" encoding="utf-8"?>
<!-- Generator: Adobe Illustrator 19.0.0, SVG Export Plug-In . SVG Version: 6.00 Build 0)  -->
<svg version="1.1" id="Camada_1" xmlns="http://www.w3.org/2000/svg" xmlns:xlink="http://www.w3.org/1999/xlink" x="0px" y="0px"
	 viewBox="0 0 59.4 36.9" style="enable-background:new 0 0 59.4 36.9;" xml:space="preserve">
<style type="text/css">
	.st0{fill:#452E94;}
	.st1{fill:#FCD117;}
</style>
<g id="XMLID_2_">
	<circle id="XMLID_9_" class="st0" cx="15.6" cy="24.1" r="12.8"/>
	<circle id="XMLID_8_" class="st0" cx="46.6" cy="24.1" r="12.8"/>
	<g id="XMLID_3_">
		<g id="XMLID_6_">
			<path id="XMLID_7_" class="st1" d="M42.9,33.4c7.1,0,12.8-5.7,12.8-12.8c0-7.1-5.7-12.8-12.8-12.8c-0.1,0-0.2,0-0.3,0
				C43.4,3.1,47.3,0,47.3,0c-16,4.3-17.1,19.1-17.1,19.1s0,0,0,0c-0.1,0.5-0.1,1-0.1,1.6C30.1,27.7,35.9,33.4,42.9,33.4z"/>
		</g>
		<g id="XMLID_4_">
			<path id="XMLID_5_" class="st1" d="M12.8,33.4c7.1,0,12.8-5.7,12.8-12.8c0-7.1-5.7-12.8-12.8-12.8c-0.1,0-0.2,0-0.3,0
				C13.2,3.1,17.2,0,17.2,0C1.2,4.3,0.1,19.1,0.1,19.1s0,0,0,0C0,19.6,0,20.1,0,20.6C0,27.7,5.7,33.4,12.8,33.4z"/>
		</g>
	</g>
</g>
</svg>
