<?xml version="1.0" encoding="utf-8"?>
<!-- Generator: Adobe Illustrator 19.0.0, SVG Export Plug-In . SVG Version: 6.00 Build 0)  -->
<svg version="1.1" id="Camada_1" xmlns="http://www.w3.org/2000/svg" xmlns:xlink="http://www.w3.org/1999/xlink" x="0px" y="0px"
	 viewBox="0 0 1050 49.9" style="enable-background:new 0 0 1050 49.9;" xml:space="preserve">
<style type="text/css">
	.st0{fill:#00B0B0;}
</style>
<g id="XMLID_788_">
	<g id="XMLID_756_">
		<path id="XMLID_789_" class="st0" d="M1026.7,17H2c-1.1,0-2-0.9-2-2s0.9-2,2-2h1024.7c1.1,0,2,0.9,2,2S1027.8,17,1026.7,17z"/>
	</g>
	<g id="XMLID_679_">
		<path id="XMLID_831_" class="st0" d="M1024.7,1.4v26.8c0,1,1.1,1.7,2,1.2l22.6-13.4c0.9-0.5,0.9-1.8,0-2.3l-22.6-13.4
			C1025.9-0.3,1024.7,0.3,1024.7,1.4z"/>
	</g>
	<g id="XMLID_676_">
		<path id="XMLID_678_" class="st0" d="M16.3,49.9c-8.1,0-14.6-6.5-14.6-14.4C1.7,23.1,11.7,13,24,13h44.2c1.1,0,2,0.9,2,2
			s-0.9,2-2,2H24C13.9,17,5.7,25.3,5.7,35.5c0,5.8,4.7,10.4,10.6,10.4c3.5,0,6.2-2.6,6.2-6c0-1.9-1.6-3.5-3.6-3.5c-1.1,0-2,1-2,2.1
			c0,0.1,0,0.2,0,0.3c0.1,0,0.2,0,0.4,0c1.1-0.1,2.1,0.6,2.2,1.7s-0.6,2.1-1.7,2.2c-1.6,0.2-2.8-0.1-3.7-0.9
			c-1.3-1.1-1.3-2.7-1.3-3.3c0-3.4,2.7-6.1,6-6.1c4.2,0,7.6,3.3,7.6,7.5C26.5,45.5,22,49.9,16.3,49.9z"/>
	</g>
</g>
</svg>
