<svg id="Camada_1" data-name="Camada 1" xmlns="http://www.w3.org/2000/svg" viewBox="0 0 1050 50"><defs><style>.cls-1{fill:#00b0b0;}.cls-2{fill:#e5f5ff;}</style></defs><title>10_linha interativa carrosel</title><g id="_Group_" data-name="&lt;Group&gt;"><g id="_Group_2" data-name="&lt;Group&gt;"><path id="_Path_" data-name="&lt;Path&gt;" class="cls-1" d="M1026.67,17.06H2a2,2,0,1,1,0-4H1026.67a2,2,0,1,1,0,4Z"/></g><g id="_Group_3" data-name="&lt;Group&gt;"><circle id="_Ellipse_" data-name="&lt;Ellipse&gt;" class="cls-2" cx="180.67" cy="14.87" r="13.5"/><path id="_Compound_Path_" data-name="&lt;Compound Path&gt;" class="cls-1" d="M180.67,29.37a14.5,14.5,0,1,1,14.5-14.5A14.52,14.52,0,0,1,180.67,29.37Zm0-27a12.5,12.5,0,1,0,12.5,12.5A12.5,12.5,0,0,0,180.67,2.37Z"/></g><g id="_Group_4" data-name="&lt;Group&gt;"><circle id="_Ellipse_2" data-name="&lt;Ellipse&gt;" class="cls-2" cx="280.67" cy="14.87" r="13.5"/><path id="_Compound_Path_2" data-name="&lt;Compound Path&gt;" class="cls-1" d="M280.67,29.37a14.5,14.5,0,1,1,14.5-14.5A14.52,14.52,0,0,1,280.67,29.37Zm0-27a12.5,12.5,0,1,0,12.5,12.5A12.5,12.5,0,0,0,280.67,2.37Z"/></g><g id="_Group_5" data-name="&lt;Group&gt;"><circle id="_Ellipse_3" data-name="&lt;Ellipse&gt;" class="cls-2" cx="380.67" cy="14.87" r="13.5"/><path id="_Compound_Path_3" data-name="&lt;Compound Path&gt;" class="cls-1" d="M380.67,29.37a14.5,14.5,0,1,1,14.5-14.5A14.52,14.52,0,0,1,380.67,29.37Zm0-27a12.5,12.5,0,1,0,12.5,12.5A12.5,12.5,0,0,0,380.67,2.37Z"/></g><g id="_Group_6" data-name="&lt;Group&gt;"><circle id="_Ellipse_4" data-name="&lt;Ellipse&gt;" class="cls-2" cx="480.66" cy="14.87" r="13.5"/><path id="_Compound_Path_4" data-name="&lt;Compound Path&gt;" class="cls-1" d="M480.66,29.37a14.5,14.5,0,1,1,14.5-14.5A14.52,14.52,0,0,1,480.66,29.37Zm0-27a12.5,12.5,0,1,0,12.5,12.5A12.51,12.51,0,0,0,480.66,2.37Z"/></g><g id="_Group_7" data-name="&lt;Group&gt;"><circle id="_Ellipse_5" data-name="&lt;Ellipse&gt;" class="cls-2" cx="580.67" cy="14.87" r="13.5"/><path id="_Compound_Path_5" data-name="&lt;Compound Path&gt;" class="cls-1" d="M580.67,29.37a14.5,14.5,0,1,1,14.5-14.5A14.52,14.52,0,0,1,580.67,29.37Zm0-27a12.5,12.5,0,1,0,12.5,12.5A12.5,12.5,0,0,0,580.67,2.37Z"/></g><g id="_Group_8" data-name="&lt;Group&gt;"><circle id="_Ellipse_6" data-name="&lt;Ellipse&gt;" class="cls-2" cx="680.76" cy="14.87" r="13.5"/><path id="_Compound_Path_6" data-name="&lt;Compound Path&gt;" class="cls-1" d="M680.76,29.37a14.5,14.5,0,1,1,14.5-14.5A14.52,14.52,0,0,1,680.76,29.37Zm0-27a12.5,12.5,0,1,0,12.5,12.5A12.51,12.51,0,0,0,680.76,2.37Z"/></g><g id="_Group_9" data-name="&lt;Group&gt;"><circle id="_Ellipse_7" data-name="&lt;Ellipse&gt;" class="cls-2" cx="780.67" cy="14.87" r="13.5"/><path id="_Compound_Path_7" data-name="&lt;Compound Path&gt;" class="cls-1" d="M780.67,29.37a14.5,14.5,0,1,1,14.5-14.5A14.52,14.52,0,0,1,780.67,29.37Zm0-27a12.5,12.5,0,1,0,12.5,12.5A12.5,12.5,0,0,0,780.67,2.37Z"/></g><g id="_Group_10" data-name="&lt;Group&gt;"><circle id="_Ellipse_8" data-name="&lt;Ellipse&gt;" class="cls-2" cx="880.76" cy="14.87" r="13.5"/><path id="_Compound_Path_8" data-name="&lt;Compound Path&gt;" class="cls-1" d="M880.76,29.37a14.5,14.5,0,1,1,14.5-14.5A14.52,14.52,0,0,1,880.76,29.37Zm0-27a12.5,12.5,0,1,0,12.5,12.5A12.51,12.51,0,0,0,880.76,2.37Z"/></g><g id="_Group_11" data-name="&lt;Group&gt;"><path id="_Path_2" data-name="&lt;Path&gt;" class="cls-1" d="M1024.74,1.46V28.27a1.35,1.35,0,0,0,2,1.16L1049.34,16a1.36,1.36,0,0,0,0-2.33L1026.79.3A1.35,1.35,0,0,0,1024.74,1.46Z"/></g><g id="_Group_12" data-name="&lt;Group&gt;"><path id="_Path_3" data-name="&lt;Path&gt;" class="cls-1" d="M16.3,50A14.54,14.54,0,0,1,1.67,35.57,22.45,22.45,0,0,1,24,13.06H68.19a2,2,0,1,1,0,4H24A18.45,18.45,0,0,0,5.67,35.57,10.42,10.42,0,0,0,16.3,46a6,6,0,0,0,6.16-6,3.47,3.47,0,0,0-3.56-3.46,2.1,2.1,0,0,0-2,2.09,2.27,2.27,0,0,0,0,.28l.43,0a2,2,0,1,1,.53,4A4.44,4.44,0,0,1,14.14,42a4.25,4.25,0,0,1-1.28-3.34,6.07,6.07,0,0,1,6-6.09A7.52,7.52,0,0,1,26.46,40,10,10,0,0,1,16.3,50Z"/></g></g></svg>