<svg id="Camada_1" data-name="Camada 1" xmlns="http://www.w3.org/2000/svg" viewBox="0 0 590 75"><defs><style>.cls-1{fill:#61cece;}.cls-2{fill:#fcd117;}</style></defs><title>11_divisão seção 2_ícone óculos</title><path id="_Path_" data-name="&lt;Path&gt;" class="cls-1" d="M281.92,48.71a9.46,9.46,0,1,1,9.46-9.45A9.46,9.46,0,0,1,281.92,48.71Z"/><path id="_Path_2" data-name="&lt;Path&gt;" class="cls-1" d="M312.28,48.71a9.46,9.46,0,1,1,9.45-9.45A9.46,9.46,0,0,1,312.28,48.71Z"/><path class="cls-2" d="M324,36.22h-2.4a11.48,11.48,0,0,0-21.26-4.79,13,13,0,0,0-10.58,0,11.5,11.5,0,0,0-21.3,4.76H266c-.7,0-1.27.3-1.27,1s.57,1,1.27,1h2.4a11.46,11.46,0,0,0,22.86-1.12,11.18,11.18,0,0,0-.52-3.39,10.5,10.5,0,0,1,8.49-.05,11.36,11.36,0,0,0,10.92,14.85,11.35,11.35,0,0,0,11.39-10.29H324c.7,0,1.27-.29,1.27-1S324.67,36.22,324,36.22Zm-44.15,9.85a8.92,8.92,0,1,1,8.92-8.91A8.92,8.92,0,0,1,279.82,46.07Zm30.36,0a8.92,8.92,0,1,1,8.91-8.91A8.93,8.93,0,0,1,310.18,46.07Z"/><path id="_Path_3" data-name="&lt;Path&gt;" class="cls-2" d="M310.18,29.8a7.36,7.36,0,0,0-7.35,7.36,1.28,1.28,0,0,0,2.55,0,4.81,4.81,0,0,1,4.8-4.81,1.28,1.28,0,0,0,0-2.55Z"/><path id="_Path_4" data-name="&lt;Path&gt;" class="cls-2" d="M279.82,29.8a7.36,7.36,0,0,0-7.35,7.36,1.28,1.28,0,0,0,2.55,0,4.81,4.81,0,0,1,4.8-4.81,1.28,1.28,0,1,0,0-2.55Z"/><path class="cls-2" d="M295,75.06A37.56,37.56,0,1,1,332.56,37.5,37.6,37.6,0,0,1,295,75.06Zm0-73.17A35.61,35.61,0,1,0,330.61,37.5,35.64,35.64,0,0,0,295,1.89Z"/><path id="_Path_5" data-name="&lt;Path&gt;" class="cls-2" d="M238.6,36.22H12.71A10.26,10.26,0,0,1,2.44,26a5.44,5.44,0,0,1,5.45-5.44,2.67,2.67,0,0,1,2.67,2.66,1,1,0,0,1-1,1,.09.09,0,0,1-.09-.09,1.22,1.22,0,0,0-2.44,0,2.53,2.53,0,0,0,2.53,2.52A3.48,3.48,0,0,0,13,23.2a5.11,5.11,0,0,0-5.1-5.1A7.7,7.7,0,0,0,0,25.75,12.52,12.52,0,0,0,12.71,38.22H238.6a10.5,10.5,0,0,1,10.27,10.52,5.57,5.57,0,0,1-5.45,5.59,2.62,2.62,0,0,1-2.67-2.6,1,1,0,0,1,1-1c.05,0,.09.06.09.11a1.22,1.22,0,0,0,2.44,0,2.53,2.53,0,0,0-2.53-2.53,3.48,3.48,0,0,0-3.47,3.48,5.09,5.09,0,0,0,5.1,5.09A7.93,7.93,0,0,0,251.31,49,12.75,12.75,0,0,0,238.6,36.22Z"/><path id="_Path_6" data-name="&lt;Path&gt;" class="cls-2" d="M582.11,18.19a5.1,5.1,0,0,0-5.1,5.09,3.47,3.47,0,0,0,3.47,3.47A2.53,2.53,0,0,0,583,24.23a1.22,1.22,0,1,0-2.44,0,.09.09,0,0,1-.09.09,1,1,0,0,1-1-1,2.67,2.67,0,0,1,2.67-2.66A5.41,5.41,0,0,1,587.57,26a10.23,10.23,0,0,1-10.28,10.21H351.4A12.78,12.78,0,0,0,338.69,49a7.94,7.94,0,0,0,7.9,7.93,5.08,5.08,0,0,0,5.09-5.08,3.47,3.47,0,0,0-3.47-3.46,2.54,2.54,0,0,0-2.53,2.53,1.22,1.22,0,0,0,2.44,0,.09.09,0,0,1,.09-.09,1,1,0,0,1,1,1,2.67,2.67,0,0,1-2.66,2.66,5.72,5.72,0,0,1-5.46-5.75A10.54,10.54,0,0,1,351.4,38.22H577.29A12.49,12.49,0,0,0,590,25.79,7.66,7.66,0,0,0,582.11,18.19Z"/></svg>