<svg id="Camada_1" data-name="Camada 1" xmlns="http://www.w3.org/2000/svg" viewBox="0 0 590 75"><defs><style>.cls-1{fill:#eb0a66;}.cls-2{fill:#fff1b9;}</style></defs><title>15_divisão seção 3_caneta de pena</title><path id="_Path_" data-name="&lt;Path&gt;" class="cls-1" d="M238.6,35.22H12.71A10.31,10.31,0,0,1,2.44,24.92a5.48,5.48,0,0,1,5.45-5.48,2.67,2.67,0,0,1,2.67,2.66,1,1,0,0,1-1,1A.09.09,0,0,1,9.43,23,1.22,1.22,0,0,0,7,23a2.53,2.53,0,0,0,2.53,2.52A3.47,3.47,0,0,0,13,22.09,5.1,5.1,0,0,0,7.89,17,7.71,7.71,0,0,0,0,24.67a12.54,12.54,0,0,0,12.71,12.5H238.6a10.48,10.48,0,0,1,10.27,10.49,5.55,5.55,0,0,1-5.45,5.57,2.63,2.63,0,0,1-2.67-2.61,1,1,0,0,1,1-1c.05,0,.09.06.09.11a1.22,1.22,0,0,0,2.44,0,2.53,2.53,0,0,0-2.53-2.52,3.47,3.47,0,0,0-3.47,3.47,5.09,5.09,0,0,0,5.1,5.09,7.88,7.88,0,0,0,7.89-7.87A12.7,12.7,0,0,0,238.6,35.22Z"/><path id="_Path_2" data-name="&lt;Path&gt;" class="cls-1" d="M582.11,17.08a5.1,5.1,0,0,0-5.1,5.09,3.47,3.47,0,0,0,3.47,3.47A2.53,2.53,0,0,0,583,23.12a1.22,1.22,0,1,0-2.44,0,.09.09,0,0,1-.09.09,1,1,0,0,1-1-1,2.67,2.67,0,0,1,2.67-2.66A5.46,5.46,0,0,1,587.57,25a10.28,10.28,0,0,1-10.28,10.26H351.4A12.74,12.74,0,0,0,338.69,48a7.91,7.91,0,0,0,7.9,7.9,5.09,5.09,0,0,0,5.09-5.09,3.47,3.47,0,0,0-3.47-3.47,2.53,2.53,0,0,0-2.53,2.52,1.22,1.22,0,0,0,2.44,0,.1.1,0,0,1,.09-.09,1,1,0,0,1,1,1,2.67,2.67,0,0,1-2.66,2.66,5.69,5.69,0,0,1-5.46-5.72A10.51,10.51,0,0,1,351.4,37.17H577.29A12.51,12.51,0,0,0,590,24.71,7.68,7.68,0,0,0,582.11,17.08Z"/><path id="_Path_3" data-name="&lt;Path&gt;" class="cls-2" d="M280.89,53.85c0,.59,5.48.28,6.06.22,7.83-.59,16.19-5.61,20.92-11.37a1.08,1.08,0,0,0,.16-.2,18.73,18.73,0,0,0,2.54-4.08C313.8,31.1,321.56,25,321.64,25A1.08,1.08,0,0,0,321,23c-13.22-.75-23.52,2.83-31.5,11A31.86,31.86,0,0,0,280.89,53.85Z"/><path id="_Path_4" data-name="&lt;Path&gt;" class="cls-1" d="M318.18,21.18a1.07,1.07,0,0,0-1-.75c-13.22-.76-23.52,2.82-31.5,11a31.82,31.82,0,0,0-8.65,19.85,45.92,45.92,0,0,0-3,8,1.07,1.07,0,0,0,.75,1.32,1,1,0,0,0,.29,0,1.08,1.08,0,0,0,1-.79C282,38.35,302.71,29,302.92,28.91a1.08,1.08,0,0,0-.87-2,56.1,56.1,0,0,0-22,19,28.8,28.8,0,0,1,7.15-13.06c7-7.09,15.86-10.53,27.1-10.4a44.37,44.37,0,0,0-8.13,9.72,39.74,39.74,0,0,0-7.85,1.87,1.07,1.07,0,0,0,.37,2.08,1.13,1.13,0,0,0,.36-.06A40.21,40.21,0,0,1,305,34.55l-.19.39a16.55,16.55,0,0,1-2,3.36,51.57,51.57,0,0,0-10.53,2.48,1.08,1.08,0,0,0,.37,2.09,1.13,1.13,0,0,0,.36-.06,52.28,52.28,0,0,1,7.54-2,30,30,0,0,1-17.58,8.05,1.09,1.09,0,0,0-1,1.16,1.08,1.08,0,0,0,1.16,1,32.18,32.18,0,0,0,21-10.92.9.9,0,0,0,.15-.19,18.35,18.35,0,0,0,2.54-4.08c3.23-7.33,11-13.4,11.07-13.46A1.09,1.09,0,0,0,318.18,21.18Z"/><path class="cls-1" d="M295,75.06A37.56,37.56,0,1,1,332.56,37.5,37.6,37.6,0,0,1,295,75.06Zm0-73.17A35.61,35.61,0,1,0,330.61,37.5,35.64,35.64,0,0,0,295,1.89Z"/></svg>