<svg xmlns="http://www.w3.org/2000/svg" viewBox="0 0 700 110"><defs><style>.cls-1{isolation:isolate;}.cls-2{fill:#fff;}.cls-3{fill:#452e94;}.cls-4{mix-blend-mode:multiply;}.cls-5{fill:#fff1b9;}</style></defs><title>16_grafismo finalização</title><g class="cls-1"><g id="Camada_1" data-name="Camada 1"><g id="_Group_" data-name="&lt;Group&gt;"><g id="_Group_2" data-name="&lt;Group&gt;"><g id="_Group_3" data-name="&lt;Group&gt;"><path id="_Path_" data-name="&lt;Path&gt;" class="cls-2" d="M354.34,51.47l.19-.47h-7.59l0,.47c-5.81-4.5-12.9-6.7-20.9-6.7V76.71A36.52,36.52,0,0,1,346.94,83h7.59A37.41,37.41,0,0,1,375,76.71V44.77A34.7,34.7,0,0,0,354.34,51.47Z"/></g><g id="_Group_4" data-name="&lt;Group&gt;"><g id="_Group_5" data-name="&lt;Group&gt;"><path id="_Path_2" data-name="&lt;Path&gt;" class="cls-3" d="M352.53,88a1.13,1.13,0,0,1-.44-.1,1,1,0,0,1-.56-.9V55a1,1,0,0,1,.39-.8,34.79,34.79,0,0,1,21.46-7.37,1,1,0,0,1,1,1V59.46a1,1,0,0,1-2,0V48.88a32.72,32.72,0,0,0-18.85,6.65V85a34.71,34.71,0,0,1,18.85-6.19V69a1,1,0,0,1,2,0V79.8a1,1,0,0,1-1,1,32.82,32.82,0,0,0-20.24,7A1,1,0,0,1,352.53,88Z"/></g><g id="_Group_6" data-name="&lt;Group&gt;"><path id="_Compound_Path_" data-name="&lt;Compound Path&gt;" class="cls-3" d="M352.53,88h-7.59a1,1,0,0,1-1-1V55a1,1,0,0,1,1-1h7.59a1,1,0,0,1,1,1V87A1,1,0,0,1,352.53,88Zm-6.59-2h5.59V56h-5.59Z"/></g><g id="_Group_7" data-name="&lt;Group&gt;"><path id="_Path_3" data-name="&lt;Path&gt;" class="cls-3" d="M344.94,88a1,1,0,0,1-.61-.21,32.77,32.77,0,0,0-20.24-7,1,1,0,0,1-1-1V69.63a1,1,0,0,1,2,0v9.18A34.65,34.65,0,0,1,343.94,85V55.53a32.69,32.69,0,0,0-18.85-6.65V58.8a1,1,0,1,1-2,0V47.87a1,1,0,0,1,1-1,34.82,34.82,0,0,1,21.47,7.37,1,1,0,0,1,.38.8V87a1,1,0,0,1-.56.9A1.09,1.09,0,0,1,344.94,88Z"/></g></g><g id="_Group_8" data-name="&lt;Group&gt;"><g id="_Group_9" data-name="&lt;Group&gt;"><path id="_Path_4" data-name="&lt;Path&gt;" class="cls-3" d="M350.64,56a1,1,0,0,1-.63-.22h0a1,1,0,0,1-.36-.68,1,1,0,0,1,.22-.74,36.12,36.12,0,0,1,8.58-7.52,35.09,35.09,0,0,1,10.83-4.47,1,1,0,0,1,.77.13,1,1,0,0,1-.32,1.84,33.12,33.12,0,0,0-10.21,4.22,33.91,33.91,0,0,0-8.09,7.09A1,1,0,0,1,350.64,56Z"/></g><g id="_Group_10" data-name="&lt;Group&gt;"><path id="_Path_5" data-name="&lt;Path&gt;" class="cls-3" d="M348.74,56a.94.94,0,0,1-.48-.13h0a1,1,0,0,1-.38-1.37A36.38,36.38,0,0,1,355,45.6,35.74,35.74,0,0,1,365,39.25a1,1,0,0,1,.77,0,1,1,0,0,1,.54.54,1,1,0,0,1-.52,1.32,33.6,33.6,0,0,0-9.35,6,34.52,34.52,0,0,0-6.78,8.44A1,1,0,0,1,348.74,56Z"/></g><g id="_Group_11" data-name="&lt;Group&gt;"><path id="_Path_6" data-name="&lt;Path&gt;" class="cls-3" d="M346.84,56h-.09a1,1,0,0,1-.69-.35A33.72,33.72,0,0,0,338,48.59a33.12,33.12,0,0,0-10.21-4.22,1,1,0,0,1-.32-1.83,1,1,0,0,1,.77-.14A35.09,35.09,0,0,1,339,46.87a35.93,35.93,0,0,1,8.58,7.52,1,1,0,0,1-.13,1.41A1,1,0,0,1,346.84,56Z"/></g><g id="_Group_12" data-name="&lt;Group&gt;"><path id="_Path_7" data-name="&lt;Path&gt;" class="cls-3" d="M348.73,56a1,1,0,0,1-.87-.49,34.29,34.29,0,0,0-6.78-8.44,33.45,33.45,0,0,0-9.35-6,1,1,0,0,1-.53-1.31,1.07,1.07,0,0,1,.55-.54,1.05,1.05,0,0,1,.78,0,35.69,35.69,0,0,1,9.9,6.35,36.38,36.38,0,0,1,7.18,8.93,1,1,0,0,1-.38,1.37A1,1,0,0,1,348.73,56Z"/></g></g><g id="_Group_13" data-name="&lt;Group&gt;"><g id="_Group_14" data-name="&lt;Group&gt;"><path id="_Path_8" data-name="&lt;Path&gt;" class="cls-3" d="M348.75,39.91a9.52,9.52,0,0,1-9.38-9.64,1,1,0,0,1,.63-.92A3.43,3.43,0,0,0,342.51,26V24.37a1,1,0,0,1,2,0V26a5.28,5.28,0,0,1-3.12,4.95,7.36,7.36,0,0,0,14.71,0A5.34,5.34,0,0,1,353,26V24.37a1,1,0,0,1,2,0V26a3.44,3.44,0,0,0,2.51,3.38,1,1,0,0,1,.63.93A9.51,9.51,0,0,1,348.75,39.91Z"/></g><g id="_Group_15" data-name="&lt;Group&gt;"><path id="_Path_9" data-name="&lt;Path&gt;" class="cls-3" d="M324.7,44.76h-.07a1,1,0,0,1-.93-1.06,13.53,13.53,0,0,1,5.81-10.46,1,1,0,0,1,1.15,1.63,11.47,11.47,0,0,0-5,9A1,1,0,0,1,324.7,44.76Z"/></g><g id="_Group_16" data-name="&lt;Group&gt;"><path id="_Path_10" data-name="&lt;Path&gt;" class="cls-3" d="M330.09,35.05a1,1,0,0,1-.58-1.81,19.35,19.35,0,0,1,6.42-2.85,1,1,0,1,1,.5,1.93,17.43,17.43,0,0,0-5.77,2.55A1,1,0,0,1,330.09,35.05Z"/></g><g id="_Group_17" data-name="&lt;Group&gt;"><path id="_Path_11" data-name="&lt;Path&gt;" class="cls-3" d="M348.75,39.91a9.48,9.48,0,0,1-9.3-8.37l-3,.78a1,1,0,0,1-1.22-.72,1,1,0,0,1,.72-1.21l4.19-1.08a1,1,0,0,1,1.25,1,7.38,7.38,0,1,0,14.75,0,1,1,0,0,1,.39-.79,1,1,0,0,1,.86-.17l4.19,1.08a1,1,0,0,1,.72,1.21,1,1,0,0,1-1.22.72l-3-.78A9.47,9.47,0,0,1,348.75,39.91Z"/></g><g id="_Group_18" data-name="&lt;Group&gt;"><path id="_Path_12" data-name="&lt;Path&gt;" class="cls-3" d="M372.79,44.76a1,1,0,0,1-1-.93c-.4-5.76-4.21-9.84-10.73-11.51a1,1,0,1,1,.49-1.93C369,32.28,373.33,37,373.79,43.7a1,1,0,0,1-.93,1.06Z"/></g></g><g id="_Group_19" data-name="&lt;Group&gt;"><path id="_Compound_Path_2" data-name="&lt;Compound Path&gt;" class="cls-3" d="M357.41,111a4.93,4.93,0,0,1-2.1-.47L311.39,90.17A8.13,8.13,0,0,1,307,84.88a8.34,8.34,0,0,1,1.22-7,7.89,7.89,0,0,1,10.59-2.22l41.28,25.58a5.32,5.32,0,0,1,1.87,7A5.11,5.11,0,0,1,357.41,111ZM314.66,76.49a5.89,5.89,0,0,0-4.82,2.56,6.36,6.36,0,0,0-.93,5.31,6.15,6.15,0,0,0,3.32,4l43.92,20.36h0a3.08,3.08,0,0,0,4-1.43A3.31,3.31,0,0,0,359,103L317.74,77.38A5.83,5.83,0,0,0,314.66,76.49Z"/></g><g id="_Group_20" data-name="&lt;Group&gt;"><path id="_Path_13" data-name="&lt;Path&gt;" class="cls-3" d="M354.2,98.9a1,1,0,0,1-.27-2l33.21-9.29a5.67,5.67,0,0,0,3.57-3,6,6,0,0,0,.13-4.95,5.67,5.67,0,0,0-3.2-3.14,5.4,5.4,0,0,0-4.28.15L346,94.35a1,1,0,0,1-1.33-.48,1,1,0,0,1,.48-1.33l37.37-17.66a7.44,7.44,0,0,1,5.85-.21,7.68,7.68,0,0,1,4.33,4.24,8.06,8.06,0,0,1-.18,6.59,7.72,7.72,0,0,1-4.83,4.08l-33.21,9.28A.84.84,0,0,1,354.2,98.9Z"/></g><g id="_Group_21" data-name="&lt;Group&gt;"><path id="_Compound_Path_3" data-name="&lt;Compound Path&gt;" class="cls-3" d="M323.8,70h-.88a3.83,3.83,0,0,1-3.79-3.87V62.33a3.83,3.83,0,0,1,3.79-3.87h.88A5.31,5.31,0,0,1,329,63.84v.75A5.31,5.31,0,0,1,323.8,70Zm-.88-9.51a1.83,1.83,0,0,0-1.79,1.87V66.1A1.83,1.83,0,0,0,322.92,68h.88A3.31,3.31,0,0,0,327,64.59v-.75a3.31,3.31,0,0,0-3.24-3.38Z"/></g><g id="_Group_22" data-name="&lt;Group&gt;"><path id="_Compound_Path_4" data-name="&lt;Compound Path&gt;" class="cls-3" d="M375,70h-2.1a4.51,4.51,0,0,1-4.51-4.51V63a4.51,4.51,0,0,1,4.51-4.5H375a3.29,3.29,0,0,1,3.3,3.29v4.92A3.3,3.3,0,0,1,375,70Zm-2.1-9.51a2.5,2.5,0,0,0-2.51,2.5v2.5A2.51,2.51,0,0,0,372.94,68H375a1.3,1.3,0,0,0,1.3-1.3V61.75a1.3,1.3,0,0,0-1.3-1.29Z"/></g><g id="_Group_23" data-name="&lt;Group&gt;"><path id="_Compound_Path_5" data-name="&lt;Compound Path&gt;" class="cls-3" d="M348.73,25.46a13.05,13.05,0,0,1-12.86-13.23,12.87,12.87,0,1,1,25.72,0A13.06,13.06,0,0,1,348.73,25.46Zm0-24.46a11.06,11.06,0,0,0-10.86,11.23,10.87,10.87,0,1,0,21.72,0A11.06,11.06,0,0,0,348.73,1Z"/></g><g id="_Group_24" data-name="&lt;Group&gt;" class="cls-4"><path id="_Path_14" data-name="&lt;Path&gt;" class="cls-5" d="M354.34,51.47l.19-.47h-7.59l0,.47c-5.81-4.5-12.9-6.7-20.9-6.7V76.71A36.52,36.52,0,0,1,346.94,83h7.59A37.41,37.41,0,0,1,375,76.71V44.77A34.7,34.7,0,0,0,354.34,51.47Z"/></g></g><path id="_Path_15" data-name="&lt;Path&gt;" class="cls-3" d="M283.08,59h-268A11.84,11.84,0,0,1,2.89,47.09a6.31,6.31,0,0,1,6.48-6.35,3.36,3.36,0,0,1,3.15,3.42,1.32,1.32,0,0,1-1.22,1.35c-.06,0-.11,0-.11-.07A1.46,1.46,0,0,0,9.74,44a1.48,1.48,0,0,0-1.44,1.5,3.06,3.06,0,0,0,3,3.1,4.19,4.19,0,0,0,4.11-4.25,6.15,6.15,0,0,0-6-6.23C4.2,38.09,0,41.77,0,47.1A14.79,14.79,0,0,0,15.08,62h268c6.72,0,12.19,6.29,12.19,13.22,0,3.69-2.9,7-6.47,7a3.08,3.08,0,0,1-3.16-3.09A1.18,1.18,0,0,1,286.87,78c.06,0,.11.09.11.15a1.49,1.49,0,0,0,1.44,1.51,1.46,1.46,0,0,0,1.45-1.48,3,3,0,0,0-3-3.08,4.19,4.19,0,0,0-4.12,4.25,6.15,6.15,0,0,0,6.05,6.23c5.16,0,9.36-5,9.36-10.32C298.16,66.64,291.4,59,283.08,59Z"/><path id="_Path_16" data-name="&lt;Path&gt;" class="cls-3" d="M690.63,38.19a6.15,6.15,0,0,0-6,6.23,4.18,4.18,0,0,0,4.12,4.25,3,3,0,0,0,3-3.09,1.45,1.45,0,1,0-2.89,0,.11.11,0,0,1-.1.11,1.25,1.25,0,0,1-1.23-1.27,3.2,3.2,0,0,1,3.15-3.25c3.58,0,6.48,2.29,6.48,6,0,6.93-5.47,11.86-12.19,11.86h-268c-8.32,0-15.08,7.69-15.08,16.26,0,5.33,4.2,10,9.36,10a6,6,0,0,0,6.05-6.06,4.12,4.12,0,0,0-4.12-4.16,3.09,3.09,0,0,0-3,3.14,1.49,1.49,0,0,0,1.45,1.51A1.46,1.46,0,0,0,413,78.23a.11.11,0,0,1,.11-.11,1.26,1.26,0,0,1,1.23,1.28,3.21,3.21,0,0,1-3.16,3.25c-3.57,0-6.47-3.69-6.47-7.38,0-6.93,5.47-13.27,12.19-13.27h268A14.75,14.75,0,0,0,700,47.15C700,41.82,695.8,38.19,690.63,38.19Z"/></g></g></g></svg>