<?xml version="1.0" encoding="utf-8"?>
<!-- Generator: Adobe Illustrator 19.0.0, SVG Export Plug-In . SVG Version: 6.00 Build 0)  -->
<svg version="1.1" id="Camada_1" xmlns="http://www.w3.org/2000/svg" xmlns:xlink="http://www.w3.org/1999/xlink" x="0px" y="0px"
	 viewBox="0 0 70.2 632.1" style="enable-background:new 0 0 70.2 632.1;" xml:space="preserve">
<style type="text/css">
	.st0{fill:none;stroke:#00B0B0;stroke-width:4;stroke-linecap:round;stroke-linejoin:round;stroke-miterlimit:10;}
	.st1{fill:#00B0B0;}
</style>
<g id="XMLID_1_">
	<g id="XMLID_4_">
		<path id="XMLID_6_" class="st0" d="M35,67V22.3C35,11.1,25.7,2,14.4,2C7.5,2,2,7.7,2,14.6c0,4.5,3.5,8.2,8,8.2
			c3.1,0,5.5-2.5,5.5-5.6c0-2.2-1.9-4-4.1-4c-1.1,0-2.5,0.4-2.2,3"/>
		<path id="XMLID_5_" class="st0" d="M35.2,67V22.3C35.2,11.1,44.5,2,55.7,2c7,0,12.4,5.7,12.4,12.6c0,4.5-3.5,8.2-8,8.2
			c-3.1,0-5.5-2.5-5.5-5.6c0-2.2,1.9-4,4.1-4c1.1,0,2.5,0.4,2.2,3"/>
	</g>
	<line id="XMLID_3_" class="st0" x1="35.1" y1="22.8" x2="35.1" y2="618.6"/>
	<path id="XMLID_2_" class="st1" d="M49.4,605.1H20.8c-1.1,0-1.8,1.2-1.2,2.2l14.3,24.1c0.6,0.9,1.9,0.9,2.5,0l14.3-24.1
		C51.2,606.3,50.5,605.1,49.4,605.1z"/>
</g>
</svg>
