<svg id="Camada_1" data-name="Camada 1" xmlns="http://www.w3.org/2000/svg" viewBox="0 0 70.1 68.85"><defs><style>.cls-1,.cls-2{fill:none;}.cls-1{stroke:#00b0b0;stroke-linecap:round;stroke-linejoin:round;stroke-width:4px;}</style></defs><path class="cls-1" d="M35.2,68V23.44A20.48,20.48,0,0,0,14.6,3.19,12.49,12.49,0,0,0,2.2,15.76a8.06,8.06,0,0,0,8,8.18,5.5,5.5,0,0,0,5.5-5.59,4.1,4.1,0,0,0-4.1-4c-1.1,0-2.5.4-2.2,3" transform="translate(-0.2 -1.19)"/><path class="cls-1" d="M35.4,68V23.44A20.46,20.46,0,0,1,55.9,3.19,12.42,12.42,0,0,1,68.3,15.76a8.06,8.06,0,0,1-8,8.18,5.5,5.5,0,0,1-5.5-5.59,4.1,4.1,0,0,1,4.1-4c1.1,0,2.5.4,2.2,3" transform="translate(-0.2 -1.19)"/><rect id="_Fatia_" data-name="&lt;Fatia&gt;" class="cls-2" x="29.8" y="63.91" width="15" height="1"/></svg>